<?xml version="1.0" standalone="no"?>
<!DOCTYPE svg PUBLIC "-//W3C//DTD SVG 20010904//EN"
 "http://www.w3.org/TR/2001/REC-SVG-20010904/DTD/svg10.dtd">
<svg version="1.0" xmlns="http://www.w3.org/2000/svg"
 width="1920.000000pt" height="835.000000pt" viewBox="0 0 1920.000000 835.000000"
 preserveAspectRatio="xMidYMid meet">

<g transform="translate(0.000000,835.000000) scale(0.100000,-0.100000)"
fill="#000000" stroke="none">
<path d="M0 8330 c0 -20 7 -20 9485 -20 l9485 0 0 -4155 0 -4155 115 0 115 0
0 4175 0 4175 -9600 0 c-9593 0 -9600 0 -9600 -20z m19125 -140 l39 -40 -79 0
-79 0 39 40 c21 22 39 40 40 40 1 0 19 -18 40 -40z m0 -175 l25 -24 0 -1031 0
-1031 -25 -24 c-13 -14 -31 -25 -40 -25 -9 0 -27 11 -40 25 l-25 24 0 1031 0
1031 25 24 c13 14 31 25 40 25 9 0 27 -11 40 -25z m25 -7950 c-7 -9 -25 -25
-40 -35 l-27 -19 -39 34 -39 34 79 1 c70 0 77 -2 66 -15z"/>
<path d="M16313 8049 c-69 -34 -83 -75 -83 -249 0 -174 14 -216 84 -249 42
-21 52 -21 1106 -21 1054 0 1064 0 1106 21 70 33 84 75 84 249 0 174 -14 216
-84 249 -42 21 -52 21 -1107 21 -1057 0 -1064 0 -1106 -21z m2042 -209 l39
-40 -41 -42 c-47 -47 -73 -45 -28 2 l29 30 -62 0 c-35 0 -62 4 -62 10 0 6 27
10 62 10 l62 0 -27 28 c-15 15 -27 31 -27 35 0 16 18 5 55 -33z m-875 -50 l0
-80 -45 0 c-36 0 -47 4 -61 25 -12 19 -25 25 -51 25 -23 0 -33 -4 -30 -12 2
-7 16 -12 31 -11 17 1 26 -3 26 -13 0 -9 -11 -14 -35 -14 -48 0 -73 36 -53 77
11 23 20 28 48 28 26 0 37 -5 45 -22 l9 -21 11 21 c6 13 22 23 38 25 21 3 27
9 27 28 0 17 5 24 20 24 18 0 20 -7 20 -80z m-942 51 c3 -10 -3 -12 -26 -6
-24 5 -35 2 -51 -14 -12 -12 -21 -28 -21 -36 0 -20 38 -57 53 -52 19 6 21 37
3 37 -9 0 -16 5 -16 10 0 6 14 10 31 10 29 0 30 -2 27 -37 -3 -37 -4 -38 -45
-41 -50 -4 -83 25 -83 72 0 46 36 78 84 74 22 -2 41 -9 44 -17z m362 5 c0 -10
-9 -14 -26 -13 -40 3 -39 -18 1 -41 58 -35 42 -82 -27 -82 -27 0 -38 4 -38 15
0 11 7 14 24 9 38 -9 43 15 7 43 -50 39 -37 83 26 83 22 0 33 -5 33 -14z m750
4 c0 -5 -13 -10 -30 -10 -25 0 -30 -4 -30 -25 0 -20 5 -25 25 -25 14 0 25 -4
25 -10 0 -5 -11 -10 -25 -10 -21 0 -25 -5 -25 -30 0 -20 -5 -30 -15 -30 -12 0
-15 15 -15 75 l0 75 45 0 c25 0 45 -4 45 -10z m-940 -15 c0 -8 7 -15 15 -15 8
0 15 -4 15 -10 0 -5 -7 -10 -15 -10 -10 0 -15 -10 -15 -30 0 -18 6 -33 15 -36
25 -10 17 -26 -12 -22 -25 3 -29 8 -34 53 -6 50 3 85 21 85 6 0 10 -7 10 -15z
m240 0 c0 -8 7 -15 15 -15 8 0 15 -4 15 -10 0 -5 -7 -10 -15 -10 -10 0 -15
-10 -15 -30 0 -18 6 -33 15 -36 25 -10 17 -26 -12 -22 -25 3 -29 8 -34 53 -6
50 3 85 21 85 6 0 10 -7 10 -15z m270 0 c0 -8 7 -15 15 -15 8 0 15 -4 15 -10
0 -5 -7 -10 -15 -10 -10 0 -15 -10 -15 -30 0 -18 6 -33 15 -36 25 -10 17 -26
-12 -22 -25 3 -29 8 -34 53 -6 50 3 85 21 85 6 0 10 -7 10 -15z m-572 -27 c7
-7 12 -20 12 -30 0 -14 -8 -18 -36 -18 -24 0 -34 -4 -31 -12 2 -7 18 -12 36
-11 20 0 31 -3 28 -10 -5 -17 -65 -21 -83 -6 -16 13 -18 52 -4 80 12 22 59 26
78 7z m430 -45 l3 -53 -41 0 c-28 0 -43 5 -47 16 -8 22 9 48 36 52 11 2 21 8
21 14 0 6 -10 8 -25 4 -19 -5 -25 -2 -25 9 0 13 9 15 38 13 l37 -3 3 -52z m92
52 c0 -3 -9 -14 -20 -25 -11 -11 -20 -33 -20 -50 0 -20 -5 -30 -15 -30 -12 0
-15 13 -15 55 l0 55 35 0 c19 0 35 -2 35 -5z m560 0 c0 -3 -9 -14 -20 -25 -11
-11 -20 -33 -20 -50 0 -20 -5 -30 -15 -30 -12 0 -15 13 -15 55 l0 55 35 0 c19
0 35 -2 35 -5z m101 -16 l11 -21 14 21 c20 27 69 28 84 2 17 -33 12 -41 -26
-41 -24 0 -34 -4 -31 -12 2 -7 16 -12 31 -11 38 3 28 -21 -11 -25 -23 -2 -36
3 -51 22 -14 18 -29 26 -52 26 -21 0 -30 -4 -27 -12 2 -7 16 -12 31 -11 36 3
29 -21 -8 -25 -31 -4 -66 22 -66 47 0 54 77 84 101 40z"/>
<path d="M17295 7790 c-3 -5 3 -10 15 -10 12 0 18 5 15 10 -3 6 -10 10 -15 10
-5 0 -12 -4 -15 -10z"/>
<path d="M17404 7786 c-9 -23 0 -51 16 -51 10 0 15 10 15 29 0 32 -21 47 -31
22z"/>
<path d="M16595 7790 c-3 -5 3 -10 14 -10 12 0 21 5 21 10 0 6 -6 10 -14 10
-8 0 -18 -4 -21 -10z"/>
<path d="M17020 7744 c0 -9 5 -14 12 -12 18 6 21 28 4 28 -9 0 -16 -7 -16 -16z"/>
<path d="M17770 7790 c0 -5 9 -10 21 -10 11 0 17 5 14 10 -3 6 -13 10 -21 10
-8 0 -14 -4 -14 -10z"/>
<path d="M17880 7790 c0 -5 9 -10 21 -10 11 0 17 5 14 10 -3 6 -13 10 -21 10
-8 0 -14 -4 -14 -10z"/>
<path d="M960 7785 l0 -135 30 0 c29 0 30 2 30 43 l0 42 28 -42 c23 -36 32
-43 60 -43 l34 0 -36 48 -35 49 29 34 c37 43 37 49 1 49 -23 0 -34 -8 -53 -37
l-23 -38 -3 83 -3 82 -29 0 -30 0 0 -135z"/>
<path d="M2264 7906 c-10 -26 4 -48 28 -44 17 2 23 10 23 28 0 18 -6 26 -23
28 -13 2 -25 -3 -28 -12z"/>
<path d="M390 7780 l0 -130 24 0 c22 0 25 5 28 43 3 42 3 42 47 48 55 7 81 36
81 89 0 57 -34 80 -116 80 l-64 0 0 -130z m108 78 c17 -17 15 -65 -4 -72 -40
-15 -54 -7 -54 32 0 21 3 42 7 45 10 11 38 8 51 -5z"/>
<path d="M1560 7780 l0 -130 25 0 25 0 0 130 0 130 -25 0 -25 0 0 -130z"/>
<path d="M1373 7872 c-15 -2 -23 -10 -23 -23 0 -10 -7 -19 -15 -19 -8 0 -15
-9 -15 -20 0 -11 7 -20 15 -20 12 0 15 -13 15 -60 0 -50 3 -61 21 -70 11 -6
30 -10 42 -8 29 4 34 34 7 41 -16 4 -20 13 -20 51 0 39 3 46 20 46 13 0 20 7
20 20 0 13 -7 20 -19 20 -13 0 -21 8 -23 23 -2 16 -9 21 -25 19z"/>
<path d="M15298 7849 c-29 -17 -21 -48 17 -71 43 -25 41 -41 -6 -49 -28 -5
-31 -7 -15 -14 27 -12 70 7 74 33 3 16 -6 27 -33 43 -41 24 -41 42 -2 47 15 2
27 8 27 13 0 12 -40 11 -62 -2z"/>
<path d="M15400 7850 c0 -5 5 -10 10 -10 6 0 10 5 10 10 0 6 -4 10 -10 10 -5
0 -10 -4 -10 -10z"/>
<path d="M15760 7785 c0 -43 4 -75 10 -75 6 0 10 32 10 75 0 43 -4 75 -10 75
-6 0 -10 -32 -10 -75z"/>
<path d="M625 7818 c-32 -17 -45 -39 -45 -79 0 -53 26 -80 82 -86 42 -5 50 -3
78 25 40 41 41 83 1 123 -32 31 -78 38 -116 17z m69 -34 c21 -8 21 -67 1 -84
-12 -10 -21 -10 -40 -2 -29 13 -34 52 -9 76 17 18 24 19 48 10z"/>
<path d="M821 7805 c-25 -21 -31 -34 -31 -65 0 -58 26 -83 86 -84 43 -1 49 2
52 21 3 20 0 22 -26 17 -53 -11 -82 45 -42 81 13 12 27 15 45 11 23 -6 26 -4
23 16 -5 36 -66 37 -107 3z"/>
<path d="M1185 7818 c-52 -28 -63 -101 -20 -143 36 -37 125 -34 125 4 0 14 -7
16 -35 13 -34 -4 -65 10 -65 29 0 5 28 9 61 9 l62 0 -7 33 c-11 57 -69 84
-121 55z m73 -45 c2 -9 -8 -13 -32 -13 -28 0 -34 3 -29 16 7 18 54 16 61 -3z"/>
<path d="M1660 7740 c0 -89 0 -90 25 -90 24 0 25 3 25 53 0 64 19 98 47 81 14
-8 19 -26 21 -73 3 -57 4 -61 27 -61 24 0 25 2 25 73 0 59 -4 77 -18 90 -22
20 -45 21 -75 6 -16 -9 -22 -9 -25 0 -2 6 -15 11 -28 11 -24 0 -24 -1 -24 -90z"/>
<path d="M1850 7827 c0 -4 46 -136 55 -159 7 -18 59 -26 69 -10 3 5 18 45 35
90 l30 82 -29 0 c-26 0 -29 -5 -46 -66 -19 -71 -24 -69 -45 14 -12 47 -15 52
-41 52 -15 0 -28 -1 -28 -3z"/>
<path d="M2070 7802 c-40 -41 -41 -83 -1 -123 33 -33 75 -38 120 -14 33 16 41
33 41 80 0 49 -27 76 -82 82 -42 5 -50 3 -78 -25z m99 -26 c31 -37 -9 -103
-46 -80 -37 23 -24 94 17 94 10 0 23 -6 29 -14z"/>
<path d="M2260 7740 l0 -90 30 0 30 0 0 90 0 90 -30 0 -30 0 0 -90z"/>
<path d="M2381 7805 c-25 -21 -31 -34 -31 -65 0 -58 26 -83 86 -84 43 -1 49 2
52 21 3 20 0 22 -26 17 -53 -11 -82 45 -42 81 13 12 27 15 45 11 23 -6 26 -4
23 16 -5 36 -66 37 -107 3z"/>
<path d="M2555 7818 c-11 -6 -25 -19 -32 -27 -17 -22 -16 -82 2 -108 28 -40
135 -43 135 -5 0 15 -7 17 -35 14 -34 -4 -65 10 -65 29 0 5 27 9 60 9 58 0 60
1 60 25 0 56 -73 93 -125 63z m73 -45 c2 -9 -8 -13 -33 -13 -33 0 -36 2 -25
15 15 18 51 16 58 -2z"/>
<path d="M15400 7765 c0 -30 5 -55 10 -55 6 0 10 25 10 55 0 30 -4 55 -10 55
-5 0 -10 -25 -10 -55z"/>
<path d="M15462 7808 c-17 -17 -15 -73 3 -88 8 -6 23 -9 35 -5 18 6 21 3 18
-12 -2 -12 -15 -20 -38 -24 -29 -5 -32 -7 -16 -14 10 -4 30 -4 45 1 24 9 26
14 29 80 l3 71 -34 1 c-19 1 -39 -4 -45 -10z m62 -24 c8 -22 -12 -56 -32 -52
-18 3 -27 30 -18 54 7 19 42 18 50 -2z"/>
<path d="M15580 7763 c0 -63 18 -72 22 -10 2 34 7 42 23 42 16 0 21 -8 23 -42
4 -56 22 -55 22 1 0 50 -12 63 -57 63 l-33 0 0 -54z"/>
<path d="M15820 7763 c0 -63 18 -72 22 -10 2 34 7 42 23 42 16 0 21 -8 23 -42
4 -56 22 -55 22 1 0 50 -12 63 -57 63 l-33 0 0 -54z"/>
<path d="M9971 6379 c-46 -18 -84 -53 -102 -93 -17 -38 -19 -74 -19 -516 l0
-476 49 -29 c76 -46 74 -87 -4 -103 l-40 -8 0 -2245 0 -2245 28 -43 c18 -27
44 -50 70 -62 41 -18 138 -19 4267 -19 2826 0 4237 3 4262 10 45 13 103 75
117 127 6 21 11 97 11 170 l0 131 -67 7 c-38 4 -86 12 -108 18 -22 6 -56 11
-75 12 -58 3 -221 58 -232 79 -15 27 0 203 17 210 14 5 78 -11 180 -45 33 -11
85 -22 116 -24 30 -3 75 -13 100 -24 24 -12 50 -21 57 -21 9 0 12 260 12 1269
l0 1268 -27 -4 c-52 -8 -54 -10 -42 -37 7 -14 19 -27 28 -29 14 -4 14 -5 -1
-6 -10 -1 -18 -11 -20 -27 -2 -15 -11 -32 -21 -38 -29 -17 -67 33 -67 88 0 78
44 126 116 126 l34 0 0 1208 c0 850 -3 1219 -11 1247 -14 51 -73 110 -124 124
-29 8 -680 11 -2293 11 l-2253 0 17 -32 c14 -26 14 -37 4 -72 -13 -43 -27 -66
-41 -66 -19 0 -79 63 -75 79 2 9 7 33 11 54 l6 37 -1928 -1 c-1183 0 -1937 -4
-1952 -10z m5629 -111 c20 -57 26 -62 71 -73 41 -10 44 -13 52 -55 5 -25 18
-58 29 -73 43 -61 -8 -104 -83 -70 -29 13 -41 26 -46 46 -4 22 -11 27 -34 27
-29 0 -69 30 -69 52 0 6 8 20 17 30 15 17 15 21 0 53 -9 19 -21 35 -27 35 -5
0 -10 9 -10 20 0 13 10 22 33 29 50 14 54 13 67 -21z m-1289 -89 c4 -7 11 -9
17 -5 6 3 13 2 17 -4 3 -6 -2 -14 -12 -18 -10 -4 -18 -13 -19 -19 -4 -50 -4
-49 -19 -29 -13 17 -15 18 -15 3 0 -22 -13 -22 -34 2 -13 14 -16 28 -10 56 6
35 8 37 37 31 17 -4 34 -11 38 -17z m-222 -11 c13 -35 2 -42 -25 -17 -29 28
-30 39 -4 39 12 0 24 -9 29 -22z m-145 -59 c9 -47 7 -114 -4 -144 -7 -20 -16
-26 -33 -23 -20 3 -22 9 -25 74 -3 82 9 124 37 124 13 0 20 -9 25 -31z m406
10 c0 -6 -4 -7 -10 -4 -5 3 -10 11 -10 16 0 6 5 7 10 4 6 -3 10 -11 10 -16z
m1159 -85 c39 -33 39 -49 -1 -68 -40 -20 -57 -20 -80 1 -22 20 -23 51 -1 75
22 25 46 23 82 -8z m-211 -46 c4 -21 -35 -30 -43 -10 -6 16 13 34 30 29 6 -2
11 -11 13 -19z m282 -58 c0 10 3 11 11 3 16 -16 3 -43 -21 -43 -16 0 -20 6
-20 33 1 30 1 31 15 13 10 -14 15 -15 15 -6z m-2932 -132 c17 -39 18 -45 4
-61 -15 -17 -17 -16 -41 7 -18 17 -33 24 -48 20 -28 -8 -37 11 -23 47 11 25
18 29 51 29 35 0 40 -3 57 -42z m32 -183 c0 -24 -5 -35 -15 -35 -18 0 -20 41
-3 58 17 17 18 16 18 -23z m3507 -118 c4 -7 20 -20 35 -30 33 -21 54 -55 40
-69 -17 -17 -102 72 -102 107 0 10 19 5 27 -8z m186 -1 c23 -17 22 -46 -1 -46
-15 0 -42 36 -42 55 0 10 25 4 43 -9z m433 -222 c17 -2 38 -12 47 -22 15 -16
13 -20 -19 -55 -19 -20 -44 -37 -55 -37 -20 0 -26 -24 -9 -35 6 -3 10 -15 10
-26 0 -11 7 -31 16 -45 12 -18 14 -28 6 -36 -6 -6 -8 -16 -5 -23 6 -16 -19
-30 -68 -39 -49 -9 -101 -35 -93 -47 4 -6 10 -6 19 1 8 6 21 7 36 2 24 -9 24
-9 -8 -26 -49 -25 -73 -21 -73 12 -1 23 -2 25 -11 9 -5 -9 -8 -21 -5 -25 2 -4
-1 -18 -8 -31 -9 -17 -10 -33 -3 -60 30 -111 -73 -194 -257 -210 -71 -7 -96
-5 -113 6 -14 8 -23 9 -23 3 0 -6 -10 -2 -22 9 -12 12 -30 24 -41 27 -16 5
-17 8 -6 15 9 6 10 12 4 17 -11 8 -14 83 -2 75 19 -11 4 31 -18 51 -26 25 -25
56 2 56 9 0 13 8 11 23 -2 12 -9 21 -16 19 -6 -1 -12 2 -12 8 0 5 5 10 10 10
16 0 12 16 -10 41 -20 23 -20 23 -8 2 10 -18 10 -25 0 -35 -9 -9 -12 -8 -12 5
0 9 -4 17 -8 17 -5 0 -8 10 -6 23 1 12 3 26 3 30 1 5 5 6 10 2 13 -7 26 16 14
24 -10 6 -12 42 -3 50 10 8 80 -21 90 -37 5 -9 10 -12 10 -5 0 6 -7 19 -16 27
-8 9 -11 16 -5 16 6 0 11 6 11 14 0 15 21 26 48 26 9 0 26 17 37 38 17 32 26
37 59 40 27 2 48 -3 75 -21 41 -27 95 -38 129 -26 19 7 22 16 22 57 0 36 5 54
20 67 30 28 136 36 246 19z m1088 -96 c24 -25 27 -50 8 -72 -11 -12 -22 -33
-26 -48 -8 -35 -29 -36 -50 -3 -18 28 -11 58 27 106 26 33 25 32 41 17z m-144
-148 c0 -11 -7 -23 -15 -27 -21 -8 -28 1 -20 26 8 27 35 27 35 1z m-5261 -430
c48 -126 51 -202 10 -254 -30 -38 -44 -32 -69 25 -24 56 -23 79 7 238 11 58
19 79 23 65 4 -10 17 -44 29 -74z m4216 -520 c3 -5 21 -16 40 -25 19 -8 50
-22 69 -30 46 -20 88 -19 117 4 32 25 60 13 84 -35 11 -22 28 -49 38 -61 l19
-21 41 28 c41 27 44 27 122 18 53 -6 101 -5 144 2 57 10 67 9 102 -10 57 -29
85 -26 126 15 19 19 43 35 52 35 9 0 22 5 28 11 7 7 41 13 76 14 36 1 68 5 73
7 5 3 37 5 72 6 59 0 84 -9 62 -23 -14 -8 -13 -81 1 -108 59 -114 139 -76 139
66 l0 67 39 0 c22 0 46 3 55 6 14 5 16 -4 16 -64 0 -66 10 -96 25 -72 9 15 70
2 128 -27 50 -25 63 -42 53 -69 -5 -13 -12 -11 -41 15 -33 28 -42 31 -105 31
-67 0 -70 -1 -85 -30 -8 -16 -15 -39 -15 -52 -1 -26 -34 -70 -67 -87 -29 -15
-26 -16 -77 28 -25 22 -60 42 -78 46 -18 4 -51 18 -73 31 -37 21 -48 23 -129
17 -102 -7 -114 -16 -146 -100 -27 -72 -27 -139 0 -148 11 -3 20 -15 20 -26 0
-15 -7 -19 -33 -19 -25 0 -42 -9 -69 -37 -62 -65 -83 -123 -61 -166 8 -16 13
-30 11 -31 -19 -12 -64 -26 -83 -26 -22 0 -24 -3 -15 -25 12 -31 -2 -71 -27
-77 -10 -2 -42 6 -71 19 -41 19 -57 34 -74 66 -11 23 -32 53 -47 67 -14 14
-38 40 -52 59 -24 33 -27 34 -59 23 -87 -31 -116 -6 -129 107 -7 67 -6 72 16
86 19 13 23 24 23 65 0 76 -22 93 -135 104 -74 7 -102 23 -137 80 -17 28 -41
64 -54 79 -17 20 -24 41 -24 69 0 45 28 101 47 94 7 -3 15 -1 18 4 8 13 22 13
30 0z m1875 -47 c-1 -5 -23 -18 -49 -31 -41 -19 -53 -21 -75 -11 -32 15 -33
27 -3 39 27 11 127 13 127 3z m-8666 -129 c4 -9 1 -23 -5 -30 -15 -18 -39 -1
-39 27 0 24 35 26 44 3z m4782 -30 c-7 -18 7 -49 37 -82 27 -29 16 -39 -55
-53 -60 -12 -88 -8 -88 13 0 9 14 13 39 13 50 0 58 8 37 39 -21 34 -21 73 2
79 31 8 34 7 28 -9z m-4626 -69 c7 -54 26 -78 83 -105 52 -25 74 -50 77 -90 4
-45 1 -47 -57 -54 -32 -4 -76 -9 -98 -12 -96 -12 -108 -10 -122 16 -7 13 -19
30 -28 36 -13 10 -14 19 -6 55 5 24 8 45 5 48 -2 2 4 13 13 24 10 10 17 21 15
23 -2 2 -1 18 3 34 8 38 51 72 84 68 22 -3 27 -9 31 -43z m1007 -107 c19 -18
23 -32 23 -83 0 -47 -4 -66 -18 -78 -66 -60 -223 37 -182 113 13 24 96 69 129
70 14 0 35 -10 48 -22z m253 -19 c18 -33 12 -117 -10 -139 -26 -26 -34 -25
-59 6 -24 30 -28 108 -8 135 24 32 60 31 77 -2z m253 -13 c11 -16 -3 -109 -19
-126 -11 -11 -19 -12 -32 -4 -9 6 -17 15 -17 20 -1 5 -4 26 -9 47 -10 51 14
91 47 81 12 -4 25 -12 30 -18z m6665 -28 c16 -19 18 -26 9 -39 -29 -38 -77
-26 -77 20 0 15 3 31 7 34 13 14 40 7 61 -15z m-3703 -108 c3 -6 16 -8 29 -4
14 3 27 -1 36 -10 9 -12 16 -13 25 -6 27 22 62 -13 41 -42 -9 -12 -17 -13 -36
-5 -14 5 -33 9 -42 8 -9 -1 -22 7 -28 19 -8 14 -17 19 -30 15 -13 -4 -22 1
-30 15 -9 17 -8 20 9 20 11 0 23 -5 26 -10z m-14 -60 c31 -26 15 -26 -18 0
-14 11 -21 20 -15 20 5 0 20 -9 33 -20z m3179 0 c-12 -22 -30 -18 -30 6 0 8 9
14 20 14 18 0 19 -3 10 -20z m-4573 -96 c3 -8 12 -13 19 -10 8 3 24 1 36 -3
20 -8 21 -10 6 -16 -22 -9 -24 -30 -3 -21 11 4 15 -1 15 -19 0 -14 -5 -25 -12
-25 -6 0 -19 -7 -28 -15 -15 -14 -21 -14 -52 -1 -41 17 -53 31 -62 70 -9 39
27 81 56 65 10 -6 22 -17 25 -25z m-349 -121 c16 -22 15 -43 -2 -62 -7 -9 -21
-38 -31 -66 -10 -27 -37 -82 -59 -122 -37 -65 -44 -71 -69 -68 -16 1 -44 -1
-64 -5 -30 -7 -39 -4 -64 18 -42 37 -50 96 -18 136 21 27 25 28 80 22 52 -5
60 -3 74 16 9 13 15 44 15 75 0 42 4 55 23 68 27 20 96 13 115 -12z m3646 8
c69 -17 71 -42 5 -85 -41 -28 -97 -34 -117 -14 -21 21 -15 75 10 92 25 18 46
19 102 7z m-567 -63 c7 -13 21 -45 32 -72 29 -68 27 -146 -4 -146 -7 0 -16 -7
-19 -16 -3 -8 -10 -12 -16 -9 -14 8 -13 -11 2 -34 14 -22 1 -92 -18 -98 -7 -2
-25 7 -40 21 l-29 25 33 33 c17 19 32 39 32 45 0 6 -16 23 -35 37 -56 43 -69
69 -67 144 1 77 9 87 74 90 37 2 46 -1 55 -20z m-4000 -117 c32 -62 18 -120
-45 -188 -39 -41 -65 -35 -103 25 -33 52 -38 115 -14 162 20 40 42 50 95 47
42 -2 46 -5 67 -46z m245 -2 c15 -30 17 -44 9 -79 -26 -114 -106 -132 -147
-33 -20 47 -17 73 12 116 23 35 29 38 66 35 36 -3 44 -8 60 -39z m223 16 c42
-41 24 -142 -29 -166 -33 -15 -52 -7 -76 33 -27 44 -25 84 6 125 31 40 65 43
99 8z m4174 -48 c10 -15 21 -17 47 -13 39 8 52 -9 61 -82 4 -39 2 -50 -16 -66
-12 -11 -24 -36 -27 -57 -11 -67 -92 -130 -129 -99 -23 19 -18 27 29 45 37 14
47 24 60 59 16 41 15 44 -9 94 -28 58 -39 62 -120 40 -36 -10 -50 -20 -72 -56
-25 -39 -29 -41 -37 -23 -4 11 -5 40 -2 65 6 40 10 46 31 46 17 0 29 9 40 29
17 34 21 36 83 36 34 0 51 -5 61 -18z m-4955 -19 c11 -31 0 -77 -20 -85 -20
-7 -54 25 -54 51 0 30 27 65 47 62 10 -2 22 -14 27 -28z m-480 6 c20 -20 20
-53 0 -82 -19 -27 -34 -28 -68 -1 -34 26 -36 71 -3 87 32 15 53 14 71 -4z
m241 -10 c16 -17 12 -53 -9 -66 -34 -23 -65 25 -40 61 18 25 27 26 49 5z
m5770 -78 c21 -44 10 -68 -16 -35 -19 25 -24 51 -12 62 10 10 11 9 28 -27z
m465 15 c0 -28 -17 -35 -29 -13 -11 21 -6 32 16 32 7 0 13 -9 13 -19z m-4908
-63 c-11 -11 -32 -3 -32 12 0 4 9 6 21 3 13 -4 17 -9 11 -15z m4246 -87 c9 -5
24 -12 33 -14 12 -4 15 -13 11 -34 -9 -53 -42 -68 -42 -19 0 13 -10 30 -22 38
-12 8 -18 19 -14 26 9 14 11 15 34 3z m1334 -337 c33 -27 73 -29 73 -4 0 9 9
15 24 15 20 0 26 -8 37 -45 8 -25 14 -68 14 -96 l0 -52 -67 -11 c-225 -37
-287 -37 -298 -2 -8 27 -9 102 -1 138 6 27 16 35 69 57 80 32 112 32 149 0z
m-2787 -208 c24 -18 11 -36 -44 -61 -49 -22 -75 -15 -66 17 15 50 71 73 110
44z m-187 -128 c26 -54 -31 -98 -83 -64 -34 23 -33 61 3 80 38 21 65 16 80
-16z m-241 -98 c1 -11 -2 -20 -8 -20 -10 0 -12 23 -2 33 9 9 9 10 10 -13z
m-1441 -157 c4 -43 8 -82 9 -88 0 -5 5 -13 10 -17 9 -7 -7 -12 -27 -9 -5 0 -8
-4 -8 -9 0 -5 -4 -10 -10 -10 -5 0 -10 7 -10 16 0 8 -4 12 -10 9 -13 -8 -13
40 0 63 5 9 12 43 15 75 4 31 10 55 15 52 4 -2 11 -40 16 -82z m91 25 c-3 -8
-6 -5 -6 6 -1 11 2 17 5 13 3 -3 4 -12 1 -19z m1173 -5 c0 -9 -6 -13 -15 -9
-8 3 -15 1 -15 -5 0 -6 -4 -8 -10 -4 -11 7 21 44 33 38 4 -2 7 -11 7 -20z
m705 -4 c0 -7 -8 -15 -17 -17 -15 -3 -16 3 -9 36 3 10 26 -7 26 -19z m2545
-14 c0 -8 -9 -19 -21 -25 -20 -11 -20 -11 -4 14 20 30 25 32 25 11z m-2803
-30 c6 -19 -55 -47 -95 -44 -21 2 -42 0 -48 -3 -5 -4 -16 -3 -24 2 -12 7 -12
10 3 16 9 3 17 12 17 19 0 7 6 16 13 19 21 9 130 1 134 -9z m-4290 -35 c27
-21 53 -26 53 -11 0 14 60 31 86 25 46 -12 43 -106 -4 -112 -24 -4 -104 37
-97 49 3 4 -2 10 -11 13 -12 5 -15 2 -10 -9 3 -9 2 -13 -3 -10 -5 3 -12 1 -16
-5 -3 -5 -16 -10 -29 -10 -28 0 -47 36 -35 68 10 27 33 28 66 2z m6543 -10 c0
-11 -7 -20 -15 -20 -13 0 -14 4 -5 20 6 11 13 20 15 20 3 0 5 -9 5 -20z
m-2590 -44 c0 -29 -65 -83 -109 -90 -23 -3 -47 -4 -52 -1 -9 6 -80 -13 -89
-24 -3 -3 -22 -14 -42 -23 -31 -15 -39 -25 -52 -69 -9 -28 -27 -66 -40 -83
-43 -55 -96 -106 -110 -106 -8 0 -19 -13 -25 -30 -6 -19 -17 -30 -29 -30 -11
0 -31 -11 -45 -24 -16 -15 -34 -22 -46 -19 -13 3 -24 -4 -37 -26 -21 -35 -29
-38 -38 -15 -4 10 -13 13 -25 9 -23 -7 -41 20 -40 57 0 22 1 22 9 3 5 -11 9
-14 9 -7 1 6 7 12 15 12 8 0 21 9 29 20 9 13 20 18 31 14 11 -4 16 -1 16 10 0
9 6 13 14 10 9 -3 17 6 24 24 6 17 20 33 31 37 25 8 26 18 5 39 -8 9 -12 16
-7 16 5 0 14 -5 20 -11 7 -7 17 -1 34 23 13 18 27 36 32 39 5 4 6 13 2 20 -6
9 -3 11 8 6 10 -3 17 -3 17 2 0 4 36 46 80 92 44 46 80 78 80 71 0 -21 31 -9
67 26 33 32 33 32 128 30 52 -1 98 1 101 5 13 12 34 8 34 -7z m-1310 -46 c0
-5 -15 -10 -32 -10 -18 0 -44 -3 -58 -7 -22 -6 -24 -5 -11 10 15 19 101 24
101 7z m27 -32 c-3 -8 -6 -5 -6 6 -1 11 2 17 5 13 3 -3 4 -12 1 -19z m-1111
-59 c24 -6 44 -16 44 -21 0 -5 4 -7 8 -4 14 9 46 -62 35 -76 -6 -8 -11 -74
-11 -158 0 -93 -4 -156 -12 -175 -7 -16 -12 -42 -11 -56 1 -15 -5 -43 -13 -64
-9 -21 -16 -45 -16 -54 -1 -9 -9 -34 -20 -56 -11 -22 -19 -47 -20 -55 0 -26
-68 -152 -90 -167 -11 -8 -20 -23 -20 -34 0 -10 -5 -19 -11 -19 -7 0 -9 -10
-5 -25 6 -22 3 -25 -21 -25 -44 0 -54 26 -47 122 4 46 6 94 6 108 -1 14 -1 43
-2 65 -2 56 0 75 8 75 4 0 8 34 9 76 1 42 6 81 12 87 5 7 14 39 20 71 13 69
13 79 1 51 -8 -18 -9 -17 -9 8 -1 15 4 27 9 27 6 0 10 11 10 24 0 13 7 40 15
59 9 22 15 67 15 112 0 117 14 129 116 104z m5322 -35 c30 -20 28 -51 -7 -126
-16 -35 -31 -70 -34 -78 -2 -8 -10 5 -17 30 -18 66 0 190 28 190 4 0 18 -7 30
-16z m-144 -30 c9 -3 14 -10 11 -15 -7 -10 -35 0 -35 12 0 11 3 11 24 3z
m-2769 -74 c-4 -6 -14 -10 -23 -9 -29 2 -43 -1 -39 -8 3 -5 -18 -8 -46 -7 -79
2 -81 2 -69 17 14 16 187 23 177 7z m-204 -52 c-6 -27 -12 -33 -31 -33 -35 0
-41 41 -8 54 40 17 46 13 39 -21z m2989 -42 c0 -8 8 -17 18 -20 9 -3 18 -17
18 -30 2 -23 60 -129 92 -168 19 -23 23 -232 5 -269 -8 -19 -27 -31 -62 -43
-84 -27 -85 -27 -76 56 l7 72 -44 37 -43 37 -3 119 c-3 105 -1 122 18 152 12
18 30 35 41 38 12 3 18 11 15 19 -3 8 -1 14 4 14 6 0 10 -6 10 -14z m-7602
-48 c21 -21 14 -48 -11 -48 -29 0 -75 45 -55 53 23 10 54 7 66 -5z m8162 -18
c0 -5 -4 -10 -9 -10 -6 0 -13 5 -16 10 -3 6 1 10 9 10 9 0 16 -4 16 -10z
m-4230 -131 c0 -11 5 -19 11 -19 7 0 0 -9 -14 -20 -14 -11 -30 -20 -35 -20 -6
0 -20 -16 -32 -35 -12 -19 -26 -33 -31 -29 -5 3 -8 0 -7 -6 2 -7 -12 -20 -31
-31 -19 -10 -37 -23 -41 -29 -4 -7 -14 -5 -29 7 -19 16 -21 22 -12 47 10 24
15 27 37 22 23 -6 24 -5 13 15 -12 23 -13 22 44 56 15 10 27 24 27 31 0 8 6
12 15 8 9 -3 15 0 15 9 0 8 6 12 14 9 7 -3 16 2 20 12 5 13 9 14 21 4 8 -7 15
-21 15 -31z m24 6 c3 -8 1 -15 -4 -15 -6 0 -10 7 -10 15 0 8 2 15 4 15 2 0 6
-7 10 -15z m89 -46 c38 -69 29 -71 -15 -4 -20 30 -31 55 -25 55 7 0 25 -23 40
-51z m-298 -49 c3 -5 1 -10 -4 -10 -6 0 -11 5 -11 10 0 6 2 10 4 10 3 0 8 -4
11 -10z m-54 -80 c5 0 9 -9 9 -20 0 -11 -5 -20 -11 -20 -14 0 -39 -25 -39 -39
0 -15 -15 -14 -29 3 -15 18 -4 46 16 39 10 -4 14 -2 10 4 -11 17 4 45 20 39 8
-3 19 -6 24 -6z m2399 -100 c17 -11 16 -11 -22 -15 -16 -2 -29 2 -32 11 -6 16
30 19 54 4z m-2516 -26 c3 -8 2 -12 -4 -9 -6 3 -10 10 -10 16 0 14 7 11 14 -7z
m-51 -51 c-7 -2 -13 -12 -13 -21 0 -13 -3 -13 -12 -4 -10 10 -10 15 2 22 8 5
20 9 25 9 6 0 4 -3 -2 -6z m4849 -17 c31 -14 47 -106 18 -106 -11 0 -21 46
-14 64 3 9 1 16 -5 16 -19 0 -20 -52 -3 -105 11 -34 11 -41 -2 -51 -9 -6 -14
-13 -12 -15 8 -8 -181 -11 -205 -4 -22 7 -29 35 -29 127 0 65 3 77 18 80 32 7
217 2 234 -6z m-329 -10 c21 -16 24 -103 4 -130 -40 -54 -87 74 -50 137 6 11
26 8 46 -7z m-348 -100 c29 -13 35 -20 35 -45 0 -17 -5 -31 -11 -31 -8 0 -8
-4 -1 -13 7 -8 7 -17 -2 -30 -11 -14 -28 -17 -90 -17 -80 0 -82 1 -89 50 -4
25 6 50 32 83 17 21 78 23 126 3z"/>
<path d="M15595 6160 c-3 -5 -1 -10 4 -10 6 0 11 5 11 10 0 6 -2 10 -4 10 -3
0 -8 -4 -11 -10z"/>
<path d="M16623 5105 c-23 -11 -30 -19 -26 -33 6 -26 50 -26 58 -1 4 11 11 19
16 19 5 0 9 7 9 15 0 18 -15 18 -57 0z"/>
<path d="M16100 5018 c0 -19 2 -20 10 -8 13 19 13 30 0 30 -5 0 -10 -10 -10
-22z"/>
<path d="M18280 2413 c-9 -2 -21 -17 -27 -33 -13 -35 2 -53 39 -48 20 3 23 9
23 42 0 39 -7 47 -35 39z"/>
<path d="M14800 1700 c-8 -5 -12 -11 -9 -14 2 -3 11 -1 19 4 8 5 12 11 9 14
-2 3 -11 1 -19 -4z"/>
<path d="M14040 1204 c0 -8 5 -12 10 -9 6 4 8 11 5 16 -9 14 -15 11 -15 -7z"/>
<path d="M2680 5535 l0 -265 75 0 75 0 0 111 c0 115 9 149 38 149 36 0 42 -21
42 -142 l0 -118 75 0 75 0 0 123 c0 145 -10 187 -52 222 -27 23 -39 26 -74 22
-23 -2 -56 -14 -73 -26 l-31 -22 0 105 0 106 -75 0 -75 0 0 -265z"/>
<path d="M3898 5780 c-72 -56 12 -152 95 -109 30 16 37 28 37 65 0 38 -17 54
-67 61 -29 4 -44 0 -65 -17z"/>
<path d="M507 5768 c-50 -14 -104 -68 -113 -113 -16 -88 22 -146 125 -191 63
-27 82 -53 61 -79 -17 -21 -77 -18 -129 5 -24 11 -45 20 -47 20 -2 0 -4 -29
-4 -64 l0 -65 57 -12 c76 -15 174 -6 224 23 41 23 79 84 79 126 0 33 -24 84
-51 109 -13 12 -49 33 -81 48 -63 29 -83 48 -75 70 12 30 80 30 160 0 15 -6
17 0 17 53 0 48 -4 61 -17 67 -32 12 -167 15 -206 3z"/>
<path d="M2390 5765 c-133 -41 -208 -194 -166 -339 34 -115 136 -174 281 -163
105 8 105 8 105 84 l0 65 -27 -8 c-16 -5 -54 -9 -86 -9 -53 0 -61 3 -87 32
-57 63 -47 155 20 201 29 20 44 23 90 19 30 -2 63 -8 73 -12 15 -6 17 0 17 63
l0 69 -37 7 c-60 9 -134 6 -183 -9z"/>
<path d="M950 5730 c-14 -5 -44 -14 -67 -20 -40 -10 -43 -13 -43 -45 0 -32 -2
-35 -30 -35 -29 0 -30 -1 -30 -50 0 -49 1 -50 30 -50 l30 0 0 -89 c0 -75 3
-93 23 -122 28 -42 60 -59 112 -59 76 0 85 7 85 61 0 47 -1 48 -32 51 l-33 3
-3 78 -3 77 36 0 35 0 0 50 0 50 -35 0 -35 0 0 55 c0 30 -3 55 -7 54 -5 0 -19
-4 -33 -9z"/>
<path d="M1217 5626 c-79 -29 -120 -90 -120 -177 0 -71 30 -128 87 -160 33
-20 55 -24 116 -24 91 0 141 22 177 75 59 91 34 215 -53 266 -55 32 -150 41
-207 20z m127 -118 c18 -26 20 -65 6 -103 -11 -30 -31 -39 -65 -31 -44 11 -56
113 -17 144 24 19 59 14 76 -10z"/>
<path d="M1775 5630 c-12 -4 -27 -15 -34 -24 -18 -22 -31 -20 -31 4 0 18 -7
20 -70 20 l-70 0 0 -265 0 -265 70 0 70 0 0 100 c0 55 3 100 7 100 3 0 14 -7
24 -16 27 -25 91 -29 133 -9 113 54 129 281 24 345 -34 20 -87 25 -123 10z
m31 -125 c18 -28 15 -95 -6 -120 -34 -41 -90 0 -90 65 0 73 61 108 96 55z"/>
<path d="M3190 5627 c-45 -12 -45 -12 -48 -59 -2 -27 -1 -48 1 -48 3 0 24 7
47 15 55 19 104 19 120 0 17 -21 12 -24 -60 -36 -106 -17 -143 -50 -143 -129
0 -101 117 -147 189 -75 l24 24 0 -24 c0 -24 2 -25 70 -25 l70 0 0 128 c0 140
-11 178 -62 215 -33 24 -143 32 -208 14z m130 -211 c0 -48 -59 -76 -79 -37
-16 30 11 55 67 60 6 0 12 -10 12 -23z"/>
<path d="M3611 5626 c-49 -18 -81 -59 -81 -106 0 -51 34 -90 99 -114 37 -13
51 -23 49 -35 -4 -22 -54 -26 -106 -8 l-42 15 0 -53 0 -53 65 -7 c142 -16 225
31 225 125 0 50 -17 70 -87 101 -37 17 -63 35 -60 42 4 13 70 16 105 4 21 -8
22 -6 22 41 0 49 0 49 -37 56 -56 9 -114 6 -152 -8z"/>
<path d="M4315 5628 c-11 -6 -30 -20 -42 -31 l-23 -20 0 26 c0 27 0 27 -75 27
l-75 0 0 -180 0 -180 75 0 74 0 3 121 c3 103 6 124 21 133 12 8 22 8 35 0 14
-9 17 -30 20 -133 l3 -121 74 0 75 0 0 138 c0 151 -12 195 -60 219 -31 16 -78
16 -105 1z"/>
<path d="M4634 5626 c-70 -31 -113 -135 -96 -228 18 -93 74 -142 155 -135 26
2 55 11 65 21 24 21 32 20 32 -5 0 -72 -91 -110 -177 -74 -19 8 -37 15 -39 15
-9 0 -3 -109 6 -115 5 -3 41 -9 78 -12 133 -11 245 48 271 142 6 22 11 119 11
218 l0 177 -75 0 c-60 0 -75 -3 -75 -15 0 -12 -6 -11 -32 5 -38 23 -80 25
-124 6z m140 -112 c22 -21 21 -102 -1 -126 -20 -22 -56 -23 -73 -2 -8 8 -13
35 -13 59 0 70 48 108 87 69z"/>
<path d="M3880 5450 l0 -180 75 0 75 0 0 180 0 180 -75 0 -75 0 0 -180z"/>
<path d="M3830 4815 l0 -265 75 0 75 0 1 88 1 87 41 -87 41 -88 82 0 82 0 -50
96 c-57 109 -58 93 12 212 l32 52 -84 0 -83 0 -35 -83 -35 -82 -3 168 -2 167
-75 0 -75 0 0 -265z"/>
<path d="M4796 5046 c-109 -41 -147 -155 -79 -237 15 -17 56 -45 92 -63 50
-24 67 -37 69 -55 8 -52 -57 -55 -170 -6 -16 6 -18 0 -18 -58 l0 -66 57 -11
c120 -25 243 7 283 73 26 42 26 112 0 152 -11 18 -53 48 -101 75 -46 25 -84
50 -86 56 -7 20 27 44 63 44 19 0 51 -7 71 -15 19 -8 39 -15 44 -15 5 0 9 27
9 59 0 70 -1 71 -115 77 -55 3 -92 0 -119 -10z"/>
<path d="M410 4800 l0 -250 75 0 75 0 0 80 0 80 43 0 c140 0 225 78 215 198
-10 111 -68 141 -275 142 l-133 0 0 -250z m232 123 c22 -20 24 -66 2 -87 -8
-9 -31 -16 -50 -16 l-34 0 0 60 0 60 32 0 c17 0 40 -7 50 -17z"/>
<path d="M5240 5010 c-14 -5 -44 -14 -67 -20 -40 -10 -43 -13 -43 -45 0 -32
-2 -35 -30 -35 -29 0 -30 -1 -30 -50 0 -49 1 -50 30 -50 l30 0 0 -89 c0 -75 3
-93 23 -122 28 -42 60 -59 112 -59 76 0 85 7 85 61 0 47 -1 48 -32 51 l-33 3
-3 78 -3 77 36 0 35 0 0 50 0 50 -35 0 -35 0 0 55 c0 30 -3 55 -7 54 -5 0 -19
-4 -33 -9z"/>
<path d="M6260 5010 c-14 -5 -44 -14 -67 -20 -40 -10 -43 -13 -43 -45 0 -32
-2 -35 -30 -35 -29 0 -30 -1 -30 -50 0 -49 1 -50 30 -50 l30 0 0 -89 c0 -75 3
-93 23 -122 28 -42 60 -59 112 -59 76 0 85 7 85 61 0 47 -1 48 -32 51 l-33 3
-3 78 -3 77 36 0 35 0 0 50 0 50 -35 0 -35 0 0 55 c0 30 -3 55 -7 54 -5 0 -19
-4 -33 -9z"/>
<path d="M965 4913 c-79 -18 -85 -22 -85 -69 0 -49 2 -50 53 -29 46 19 97 19
123 1 26 -20 16 -26 -55 -36 -103 -14 -151 -55 -151 -128 0 -103 115 -149 192
-76 l28 28 0 -27 c0 -27 1 -27 71 -27 l72 0 -6 134 c-6 158 -18 188 -80 217
-39 17 -113 23 -162 12z m105 -211 c0 -58 -82 -87 -88 -31 -3 22 2 29 25 37
43 16 63 14 63 -6z"/>
<path d="M1490 4913 c-8 -3 -27 -15 -42 -25 -28 -19 -28 -19 -28 1 0 19 -6 21
-75 21 l-75 0 0 -265 0 -265 75 0 75 0 0 101 0 101 34 -21 c120 -74 252 67
216 232 -6 28 -18 62 -26 75 -26 40 -106 63 -154 45z m17 -115 c27 -34 21
-121 -9 -140 -20 -12 -45 -9 -62 8 -22 21 -21 102 1 126 19 21 56 24 70 6z"/>
<path d="M1837 4906 c-21 -8 -48 -22 -59 -33 -52 -46 -73 -157 -44 -227 32
-76 116 -114 226 -103 86 9 90 12 90 67 l0 49 -32 -10 c-65 -18 -140 -5 -152
27 -4 11 17 14 110 14 l116 0 -7 58 c-9 80 -33 122 -85 149 -49 26 -106 29
-163 9z m101 -88 c7 -7 12 -20 12 -30 0 -15 -8 -18 -45 -18 -49 0 -53 5 -29
38 17 24 43 29 62 10z"/>
<path d="M2334 4901 c-18 -11 -34 -25 -37 -33 -3 -7 -6 -1 -6 15 -1 27 -1 27
-76 27 l-75 0 0 -180 0 -180 75 0 75 0 0 103 c0 91 2 106 21 126 17 18 30 22
60 19 l39 -4 0 63 c0 59 -2 63 -22 63 -13 0 -37 -9 -54 -19z"/>
<path d="M3167 4905 c-44 -15 -83 -48 -103 -87 -18 -35 -18 -141 1 -177 70
-136 314 -134 376 3 36 80 14 190 -47 233 -59 42 -156 54 -227 28z m127 -117
c35 -49 9 -138 -39 -138 -37 0 -55 26 -55 80 0 54 18 80 55 80 13 0 31 -10 39
-22z"/>
<path d="M3724 4910 c-12 -5 -29 -19 -38 -32 l-16 -22 0 27 c0 27 0 27 -75 27
l-75 0 0 -180 0 -180 75 0 75 0 0 105 c0 93 2 107 21 126 16 16 30 20 60 17
l39 -4 0 63 c0 59 -1 63 -22 62 -13 0 -33 -4 -44 -9z"/>
<path d="M5495 4913 c-79 -18 -85 -22 -85 -69 0 -49 2 -50 53 -29 46 19 97 19
123 1 26 -20 16 -26 -55 -36 -103 -14 -151 -55 -151 -128 0 -103 115 -149 192
-76 l28 28 0 -27 c0 -27 1 -27 71 -27 l72 0 -6 134 c-6 158 -18 188 -80 217
-39 17 -113 23 -162 12z m105 -211 c0 -58 -82 -87 -88 -31 -3 22 2 29 25 37
43 16 63 14 63 -6z"/>
<path d="M5986 4890 l-36 -32 0 26 c0 26 -1 26 -70 26 l-70 0 0 -180 0 -180
69 0 69 0 4 106 c3 98 5 108 28 126 19 15 34 19 63 15 l38 -5 -3 61 c-3 59 -4
62 -30 65 -18 2 -37 -7 -62 -28z"/>
<path d="M2423 4898 c3 -7 24 -88 48 -180 l44 -168 77 0 c88 0 78 -12 104 123
10 50 20 83 24 75 4 -7 15 -55 25 -105 l17 -93 78 0 78 0 11 43 c6 23 28 104
50 180 l39 137 -68 0 -68 0 -12 -115 c-7 -63 -16 -115 -19 -115 -4 0 -16 51
-27 113 l-20 112 -71 3 -71 3 -17 -78 c-9 -43 -22 -98 -29 -123 l-12 -45 -12
90 c-7 50 -15 105 -18 123 l-6 32 -75 0 c-56 0 -73 -3 -70 -12z"/>
<path d="M4275 4655 c-14 -13 -25 -33 -25 -45 0 -34 44 -70 85 -70 41 0 85 36
85 70 0 12 -11 32 -25 45 -33 34 -87 34 -120 0z"/>
<path d="M2315 4335 c-14 -13 -25 -33 -25 -45 0 -34 44 -70 85 -70 41 0 85 36
85 70 0 12 -11 32 -25 45 -33 34 -87 34 -120 0z"/>
<path d="M6835 4335 c-14 -13 -25 -33 -25 -45 0 -34 44 -70 85 -70 41 0 85 36
85 70 0 12 -11 32 -25 45 -33 34 -87 34 -120 0z"/>
<path d="M564 4322 c-95 -34 -144 -82 -170 -168 -30 -99 -10 -190 55 -255 76
-77 190 -97 331 -61 l65 17 3 138 3 137 -126 0 -125 0 0 -55 0 -55 50 0 50 0
0 -40 c0 -39 -1 -40 -35 -40 -80 0 -120 47 -120 139 1 119 91 168 228 127 l47
-14 0 63 c0 75 0 75 -120 81 -66 4 -96 1 -136 -14z"/>
<path d="M3634 4258 c19 -40 52 -112 75 -161 38 -82 41 -93 41 -177 l0 -90 80
0 80 0 0 91 0 91 75 155 c41 86 75 158 75 159 0 2 -35 4 -78 4 l-79 0 -29 -95
c-16 -52 -31 -95 -34 -95 -3 0 -19 42 -36 93 l-31 92 -86 3 -87 3 34 -73z"/>
<path d="M5540 4080 l0 -250 138 0 c102 1 150 5 187 18 63 22 95 65 95 129 0
38 -6 51 -34 79 -19 19 -41 34 -50 34 -22 0 -20 17 4 25 29 9 70 63 70 93 0
15 -9 41 -20 59 -28 47 -92 63 -257 63 l-133 0 0 -250z m232 133 c37 -33 8
-83 -49 -83 l-33 0 0 50 c0 49 0 50 32 50 17 0 40 -7 50 -17z m9 -193 c12 -7
19 -21 19 -40 0 -35 -23 -50 -74 -50 l-36 0 0 50 0 50 36 0 c19 0 44 -5 55
-10z"/>
<path d="M1114 4181 c-18 -11 -34 -25 -37 -33 -3 -7 -6 -1 -6 15 -1 27 -1 27
-76 27 l-75 0 0 -180 0 -180 75 0 75 0 0 103 c0 91 2 106 21 126 17 18 30 22
60 19 l39 -4 0 63 c0 59 -2 63 -22 63 -13 0 -37 -9 -54 -19z"/>
<path d="M1350 4188 c-109 -31 -161 -154 -111 -263 32 -69 92 -104 181 -105
132 -1 210 70 210 190 0 28 -6 65 -14 83 -35 86 -153 128 -266 95z m114 -114
c22 -21 21 -102 -1 -126 -38 -42 -93 -6 -93 62 0 67 55 104 94 64z"/>
<path d="M2735 4189 c-11 -6 -30 -21 -42 -32 l-23 -20 0 26 c0 27 0 27 -75 27
l-75 0 0 -180 0 -180 75 0 75 0 0 113 c0 128 10 154 52 144 32 -8 38 -36 38
-163 l0 -94 71 0 70 0 -3 155 c-3 152 -3 155 -29 181 -30 30 -101 42 -134 23z"/>
<path d="M3055 4187 c-62 -29 -95 -94 -95 -189 0 -103 44 -164 128 -175 30 -4
52 0 82 16 l40 21 0 -25 c0 -65 -99 -107 -168 -71 -17 9 -33 16 -37 16 -3 0
-5 -26 -5 -59 l0 -58 38 -7 c140 -23 260 24 303 119 16 34 19 67 19 228 l0
187 -75 0 c-63 0 -75 -3 -75 -17 0 -15 -2 -14 -20 2 -25 23 -97 29 -135 12z
m142 -109 c27 -34 21 -121 -9 -140 -20 -12 -45 -9 -62 8 -22 21 -21 102 1 126
19 21 56 24 70 6z"/>
<path d="M4207 4185 c-44 -15 -83 -48 -103 -87 -18 -35 -18 -141 1 -177 70
-136 314 -134 376 3 36 80 14 190 -47 233 -59 42 -156 54 -227 28z m127 -117
c35 -49 9 -138 -39 -138 -37 0 -55 26 -55 80 0 54 18 80 55 80 13 0 31 -10 39
-22z"/>
<path d="M5204 4181 c-18 -11 -34 -25 -37 -33 -3 -7 -6 -1 -6 15 -1 27 -1 27
-76 27 l-75 0 0 -180 0 -180 75 0 75 0 0 103 c0 91 2 106 21 126 17 18 30 22
60 19 l39 -4 0 63 c0 59 -2 63 -22 63 -13 0 -37 -9 -54 -19z"/>
<path d="M6556 4185 c-55 -19 -77 -46 -83 -96 -6 -58 18 -89 92 -119 39 -16
55 -27 53 -39 -4 -22 -55 -26 -106 -8 l-42 15 0 -49 c0 -26 4 -50 10 -54 5 -3
37 -8 72 -11 126 -12 208 35 208 120 0 57 -27 89 -95 114 -84 30 -50 68 39 43
l36 -9 0 47 c0 48 0 48 -37 55 -58 9 -104 6 -147 -9z"/>
<path d="M7255 4189 c-11 -6 -30 -21 -42 -32 l-23 -20 0 26 c0 27 0 27 -75 27
l-75 0 0 -180 0 -180 75 0 75 0 0 113 c0 128 10 154 52 144 32 -8 38 -36 38
-163 l0 -94 71 0 70 0 -3 155 c-3 152 -3 155 -29 181 -30 30 -101 42 -134 23z"/>
<path d="M7585 4182 c-81 -38 -112 -100 -103 -206 5 -61 34 -108 80 -132 43
-22 136 -29 197 -14 l51 12 0 50 c0 44 -2 49 -17 43 -41 -17 -122 -18 -148 -1
-45 29 -29 36 86 36 l111 0 -4 65 c-4 68 -21 101 -70 138 -38 28 -132 33 -183
9z m113 -84 c7 -7 12 -20 12 -30 0 -15 -8 -18 -45 -18 -49 0 -59 15 -29 44 18
19 45 21 62 4z"/>
<path d="M7975 4185 c-48 -17 -72 -44 -81 -90 -11 -62 18 -95 127 -140 13 -5
24 -17 24 -25 0 -21 -57 -25 -111 -6 l-45 15 3 -52 3 -52 59 -9 c72 -12 159 4
192 35 13 12 28 37 34 55 21 62 -13 113 -91 139 -36 12 -49 22 -49 36 0 22 33
25 88 10 l32 -10 0 48 c0 46 -1 49 -31 55 -50 10 -111 6 -154 -9z"/>
<path d="M8326 4185 c-55 -19 -77 -46 -83 -96 -6 -58 18 -89 92 -119 39 -16
55 -27 53 -39 -4 -22 -55 -26 -106 -8 l-42 15 0 -49 c0 -26 4 -50 10 -54 5 -3
37 -8 72 -11 126 -12 208 35 208 120 0 57 -27 89 -95 114 -84 30 -50 68 39 43
l36 -9 0 47 c0 48 0 48 -37 55 -58 9 -104 6 -147 -9z"/>
<path d="M1663 4178 c3 -7 24 -88 48 -180 l44 -168 77 0 c88 0 78 -12 104 123
10 50 20 83 24 75 4 -7 15 -55 25 -105 l17 -93 78 0 78 0 11 43 c6 23 28 104
50 180 l39 137 -68 0 -68 0 -12 -115 c-7 -63 -16 -115 -19 -115 -4 0 -16 51
-27 113 l-20 112 -71 3 -71 3 -17 -78 c-9 -43 -22 -98 -29 -123 l-12 -45 -12
90 c-7 50 -15 105 -18 123 l-6 32 -75 0 c-56 0 -73 -3 -70 -12z"/>
<path d="M2300 4010 l0 -180 75 0 75 0 0 180 0 180 -75 0 -75 0 0 -180z"/>
<path d="M4560 4048 c0 -159 12 -198 68 -219 37 -15 99 -5 134 21 28 21 28 21
28 0 0 -18 6 -20 75 -20 l75 0 0 180 0 180 -75 0 -75 0 0 -111 c0 -122 -8
-149 -46 -149 -35 0 -44 32 -44 156 l0 104 -70 0 -70 0 0 -142z"/>
<path d="M6020 4048 c0 -159 12 -198 68 -219 37 -15 99 -5 134 21 28 21 28 21
28 0 0 -18 6 -20 75 -20 l75 0 0 180 0 180 -75 0 -75 0 0 -111 c0 -122 -8
-149 -46 -149 -35 0 -44 32 -44 156 l0 104 -70 0 -70 0 0 -142z"/>
<path d="M6820 4010 l0 -180 75 0 75 0 0 180 0 180 -75 0 -75 0 0 -180z"/>
<path d="M8620 3947 c-43 -22 -40 -95 5 -115 38 -17 69 -15 99 9 73 58 -17
150 -104 106z"/>
<path d="M810 3190 c0 -60 4 -100 10 -100 6 0 10 14 10 32 l0 32 33 -32 c45
-43 55 -40 18 5 l-31 37 32 33 c19 19 26 33 18 33 -7 0 -26 -15 -41 -32 l-28
-33 -1 63 c0 34 -4 62 -10 62 -6 0 -10 -40 -10 -100z"/>
<path d="M1760 3275 c0 -8 5 -15 10 -15 6 0 10 7 10 15 0 8 -4 15 -10 15 -5 0
-10 -7 -10 -15z"/>
<path d="M2166 3281 c-4 -5 -2 -12 3 -15 5 -4 12 -2 15 3 4 5 2 12 -3 15 -5 4
-12 2 -15 -3z"/>
<path d="M2510 3190 c0 -104 17 -140 22 -49 3 55 21 78 52 66 12 -5 16 -20 16
-62 0 -30 5 -55 10 -55 6 0 10 26 10 59 0 71 -16 91 -61 74 -29 -11 -29 -11
-29 28 0 21 -4 39 -10 39 -6 0 -10 -40 -10 -100z"/>
<path d="M3024 3190 c0 -58 1 -81 3 -52 2 28 2 76 0 105 -2 28 -3 5 -3 -53z"/>
<path d="M3080 3190 c0 -60 4 -100 10 -100 6 0 10 40 10 100 0 60 -4 100 -10
100 -6 0 -10 -40 -10 -100z"/>
<path d="M3256 3281 c-4 -5 -2 -12 3 -15 5 -4 12 -2 15 3 4 5 2 12 -3 15 -5 4
-12 2 -15 -3z"/>
<path d="M4524 3190 c0 -58 1 -81 3 -52 2 28 2 76 0 105 -2 28 -3 5 -3 -53z"/>
<path d="M4683 3283 c-7 -2 -13 -16 -13 -29 0 -15 -6 -24 -15 -24 -8 0 -15 -4
-15 -10 0 -5 7 -10 15 -10 10 0 15 -16 18 -62 l3 -63 2 63 c2 48 5 62 17 62 8
0 15 5 15 10 0 6 -7 10 -15 10 -22 0 -18 31 5 37 11 3 20 9 20 14 0 10 -17 11
-37 2z"/>
<path d="M5250 3190 c0 -104 17 -140 22 -49 3 55 21 78 52 66 12 -5 16 -20 16
-62 0 -30 5 -55 10 -55 6 0 10 26 10 59 0 71 -16 91 -61 74 -29 -11 -29 -11
-29 28 0 21 -4 39 -10 39 -6 0 -10 -40 -10 -100z"/>
<path d="M5830 3275 c0 -8 5 -15 10 -15 6 0 10 7 10 15 0 8 -4 15 -10 15 -5 0
-10 -7 -10 -15z"/>
<path d="M392 3183 c1 -54 3 -81 5 -60 4 33 7 37 34 37 16 0 38 9 49 20 43 43
11 100 -57 100 l-33 0 2 -97z m82 55 c16 -26 -4 -52 -43 -56 -30 -3 -31 -2
-31 38 0 40 1 41 31 38 18 -2 37 -11 43 -20z"/>
<path d="M1250 3185 c0 -57 4 -95 10 -95 6 0 10 38 10 95 0 57 -4 95 -10 95
-6 0 -10 -38 -10 -95z"/>
<path d="M5114 3270 c-90 -36 -60 -180 37 -180 41 0 59 18 59 60 0 38 -2 40
-30 40 -16 0 -30 -4 -30 -10 0 -5 9 -10 21 -10 16 0 20 -5 17 -27 -2 -23 -8
-29 -35 -31 -43 -4 -73 26 -73 73 0 48 29 75 81 75 24 0 38 4 34 10 -7 12 -52
12 -81 0z"/>
<path d="M8091 3254 c-26 -21 -31 -33 -31 -69 0 -56 23 -85 76 -92 25 -3 44
-1 48 6 5 7 -6 11 -32 11 -49 0 -76 27 -76 77 0 44 32 73 81 73 20 0 32 4 28
10 -12 19 -63 10 -94 -16z"/>
<path d="M1095 3255 c-5 -11 -13 -24 -19 -28 -8 -6 -7 -10 2 -14 7 -3 12 -23
12 -52 0 -26 5 -52 12 -59 15 -15 38 -16 38 -2 0 6 -7 10 -15 10 -11 0 -15 12
-15 50 0 38 4 50 15 50 8 0 15 5 15 10 0 6 -6 10 -14 10 -8 0 -16 10 -19 23
-3 21 -4 21 -12 2z"/>
<path d="M2435 3255 c-5 -11 -13 -24 -19 -28 -8 -6 -7 -10 2 -14 7 -3 12 -23
12 -52 0 -26 5 -52 12 -59 15 -15 38 -16 38 -2 0 6 -7 10 -15 10 -11 0 -15 12
-15 50 0 38 4 50 15 50 8 0 15 5 15 10 0 6 -6 10 -14 10 -8 0 -16 10 -19 23
-3 21 -4 21 -12 2z"/>
<path d="M6565 3255 c-5 -11 -13 -24 -19 -28 -8 -6 -7 -10 2 -14 7 -3 12 -23
12 -52 0 -26 5 -52 12 -59 15 -15 38 -16 38 -2 0 6 -7 10 -15 10 -11 0 -15 12
-15 50 0 38 4 50 15 50 8 0 15 5 15 10 0 6 -6 10 -14 10 -8 0 -16 10 -19 23
-3 21 -4 21 -12 2z"/>
<path d="M8615 3255 c-5 -11 -13 -24 -19 -28 -8 -6 -7 -10 2 -14 7 -3 12 -23
12 -52 0 -26 5 -52 12 -59 15 -15 38 -16 38 -2 0 6 -7 10 -15 10 -11 0 -15 12
-15 50 0 38 4 50 15 50 8 0 15 5 15 10 0 6 -6 10 -14 10 -8 0 -16 10 -19 23
-3 21 -4 21 -12 2z"/>
<path d="M4121 3248 c0 -10 -8 -18 -16 -18 -8 0 -15 -4 -15 -10 0 -5 7 -10 15
-10 10 0 15 -15 17 -57 3 -51 6 -58 26 -61 27 -4 29 14 2 21 -16 4 -20 14 -20
51 0 39 3 46 20 46 11 0 20 5 20 10 0 6 -9 10 -19 10 -11 0 -22 8 -24 18 -4
16 -5 16 -6 0z"/>
<path d="M542 3214 c-19 -13 -22 -24 -20 -57 2 -33 9 -44 31 -57 24 -13 30
-13 55 0 21 13 28 24 30 57 2 33 -1 44 -20 57 -12 9 -29 16 -38 16 -9 0 -26
-7 -38 -16z m78 -29 c15 -40 -3 -75 -40 -75 -39 0 -59 36 -42 75 9 19 19 25
42 25 23 0 33 -6 40 -25z"/>
<path d="M702 3214 c-34 -23 -28 -92 9 -113 17 -9 32 -11 45 -6 16 8 14 10
-14 13 -66 7 -68 102 -2 102 16 0 30 5 30 10 0 16 -43 12 -68 -6z"/>
<path d="M950 3203 c-48 -61 17 -144 80 -103 11 7 6 10 -20 10 -34 0 -60 14
-60 32 0 4 23 8 51 8 51 0 51 0 45 28 -14 55 -62 68 -96 25z m70 3 c0 -2 3
-11 6 -20 5 -13 -2 -16 -35 -16 -42 0 -50 7 -29 28 11 11 58 17 58 8z"/>
<path d="M1320 3160 c0 -81 17 -95 22 -19 3 55 21 78 52 66 12 -5 16 -20 16
-62 0 -30 5 -55 10 -55 6 0 10 27 10 60 0 50 -3 61 -21 71 -16 8 -28 8 -45 0
-15 -6 -24 -7 -24 -1 0 6 -4 10 -10 10 -6 0 -10 -30 -10 -70z"/>
<path d="M1462 3218 c15 -57 43 -128 50 -128 10 0 44 76 54 118 11 47 -12 11
-32 -48 l-18 -55 -20 63 c-11 34 -24 62 -29 62 -5 0 -7 -6 -5 -12z"/>
<path d="M1622 3214 c-19 -13 -22 -24 -20 -57 2 -33 9 -44 31 -57 24 -13 30
-13 55 0 21 13 28 24 30 57 2 33 -1 44 -20 57 -12 9 -29 16 -38 16 -9 0 -26
-7 -38 -16z m78 -29 c15 -40 -3 -75 -40 -75 -23 0 -33 6 -42 25 -17 39 3 75
42 75 23 0 33 -6 40 -25z"/>
<path d="M1760 3160 c0 -40 4 -70 10 -70 6 0 10 30 10 70 0 40 -4 70 -10 70
-6 0 -10 -30 -10 -70z"/>
<path d="M1840 3210 c-52 -52 9 -149 70 -110 11 7 8 10 -15 10 -38 0 -55 16
-55 50 0 34 17 50 53 50 16 0 26 4 22 10 -10 17 -54 11 -75 -10z"/>
<path d="M1960 3203 c-48 -61 17 -144 80 -103 11 7 6 10 -20 10 -34 0 -60 14
-60 32 0 4 23 8 51 8 51 0 51 0 45 28 -14 55 -62 68 -96 25z m70 3 c0 -2 3
-11 6 -20 5 -13 -2 -16 -35 -16 -42 0 -50 7 -29 28 11 11 58 17 58 8z"/>
<path d="M2173 3160 c0 -41 2 -58 4 -37 2 20 2 54 0 75 -2 20 -4 3 -4 -38z"/>
<path d="M2242 3218 c-21 -21 -13 -47 18 -63 42 -22 39 -43 -7 -47 -31 -3 -34
-6 -19 -12 28 -13 70 5 74 32 3 18 -4 26 -33 38 -41 17 -42 37 -2 42 15 2 27
8 27 13 0 13 -44 11 -58 -3z"/>
<path d="M2682 3214 c-16 -11 -22 -25 -22 -53 0 -57 47 -89 90 -61 11 7 6 10
-20 10 -34 0 -60 14 -60 32 0 4 23 8 50 8 43 0 50 3 50 20 0 22 -33 60 -53 60
-7 0 -23 -7 -35 -16z m66 -26 c3 -15 -4 -18 -38 -18 -38 0 -40 1 -30 21 14 25
63 23 68 -3z"/>
<path d="M2890 3220 c-11 -7 -5 -10 23 -10 46 0 52 -27 7 -36 -16 -4 -35 -12
-41 -20 -27 -32 15 -79 51 -56 12 7 20 8 20 2 0 -5 5 -10 10 -10 14 0 12 114
-2 128 -14 14 -47 15 -68 2z m58 -82 c-4 -31 -58 -40 -58 -10 0 25 8 32 37 32
20 0 24 -5 21 -22z"/>
<path d="M3263 3160 c0 -41 2 -58 4 -37 2 20 2 54 0 75 -2 20 -4 3 -4 -38z"/>
<path d="M3320 3160 c0 -81 17 -95 22 -19 3 55 21 78 52 66 12 -5 16 -20 16
-62 0 -30 5 -55 10 -55 6 0 10 27 10 60 0 50 -3 61 -21 71 -16 8 -28 8 -45 0
-15 -6 -24 -7 -24 -1 0 6 -4 10 -10 10 -6 0 -10 -30 -10 -70z"/>
<path d="M3595 3205 c-14 -13 -25 -33 -25 -45 0 -27 43 -70 70 -70 54 0 83 93
38 124 -32 22 -55 20 -83 -9z m80 -45 c0 -42 -2 -45 -28 -48 -50 -6 -72 32
-46 79 8 15 19 19 42 17 31 -3 32 -5 32 -48z"/>
<path d="M3740 3160 c0 -81 17 -95 22 -19 3 55 21 78 52 66 12 -5 16 -20 16
-62 0 -30 5 -55 10 -55 6 0 10 27 10 60 0 50 -3 61 -21 71 -16 8 -28 8 -45 0
-15 -6 -24 -7 -24 -1 0 6 -4 10 -10 10 -6 0 -10 -30 -10 -70z"/>
<path d="M3912 3214 c-16 -11 -22 -25 -22 -53 0 -57 47 -89 90 -61 11 7 6 10
-20 10 -34 0 -60 14 -60 32 0 4 23 8 50 8 43 0 50 3 50 20 0 22 -33 60 -53 60
-7 0 -23 -7 -35 -16z m66 -26 c3 -15 -4 -18 -38 -18 -38 0 -40 1 -30 21 14 25
63 23 68 -3z"/>
<path d="M4210 3210 c-41 -41 -12 -120 44 -120 15 0 33 11 46 27 53 68 -30
153 -90 93z m78 -12 c7 -7 12 -24 12 -38 0 -31 -17 -50 -45 -50 -28 0 -45 19
-45 50 0 31 17 50 45 50 12 0 26 -5 33 -12z"/>
<path d="M4370 3210 c-41 -41 -12 -120 44 -120 15 0 33 11 46 27 53 68 -30
153 -90 93z m78 -12 c7 -7 12 -24 12 -38 0 -31 -17 -50 -45 -50 -28 0 -45 19
-45 50 0 31 17 50 45 50 12 0 26 -5 33 -12z"/>
<path d="M4750 3210 c-41 -41 -12 -120 44 -120 15 0 33 11 46 27 53 68 -30
153 -90 93z m78 -12 c7 -7 12 -24 12 -38 0 -31 -17 -50 -45 -50 -28 0 -45 19
-45 50 0 31 17 50 45 50 12 0 26 -5 33 -12z"/>
<path d="M4900 3160 c0 -84 18 -94 22 -12 3 50 6 57 26 60 12 2 22 8 22 13 0
13 -24 11 -38 -3 -9 -9 -12 -9 -12 0 0 7 -4 12 -10 12 -6 0 -10 -30 -10 -70z"/>
<path d="M5420 3220 c-11 -7 -7 -10 17 -10 17 0 35 -5 39 -11 8 -14 -14 -29
-43 -29 -25 0 -46 -31 -37 -54 8 -21 39 -29 64 -16 13 7 20 7 20 0 0 -5 5 -10
11 -10 17 0 6 119 -12 131 -18 11 -40 11 -59 -1z m60 -73 c0 -19 -21 -37 -42
-37 -24 0 -35 29 -17 41 21 13 59 11 59 -4z"/>
<path d="M5540 3160 c0 -81 17 -95 22 -19 3 55 21 78 52 66 12 -5 16 -20 16
-62 0 -30 5 -55 10 -55 6 0 10 27 10 60 0 50 -3 61 -21 71 -16 8 -28 8 -45 0
-15 -6 -24 -7 -24 -1 0 6 -4 10 -10 10 -6 0 -10 -30 -10 -70z"/>
<path d="M5710 3220 c-11 -7 -7 -10 17 -10 17 0 35 -5 39 -11 8 -14 -14 -29
-43 -29 -25 0 -46 -31 -37 -54 8 -21 39 -29 64 -16 13 7 20 7 20 0 0 -5 5 -10
11 -10 17 0 6 119 -12 131 -18 11 -40 11 -59 -1z m60 -73 c0 -19 -21 -37 -42
-37 -24 0 -35 29 -17 41 21 13 59 11 59 -4z"/>
<path d="M5830 3160 c0 -40 4 -70 10 -70 6 0 10 30 10 70 0 40 -4 70 -10 70
-6 0 -10 -30 -10 -70z"/>
<path d="M5911 3221 c-11 -7 -6 -10 19 -13 44 -4 51 -26 11 -34 -17 -4 -36
-12 -42 -20 -27 -32 15 -79 51 -56 12 7 20 8 20 2 0 -5 5 -10 10 -10 14 0 12
114 -2 128 -14 14 -47 15 -67 3z m57 -83 c-3 -26 -46 -38 -59 -17 -11 19 9 39
38 39 20 0 24 -4 21 -22z"/>
<path d="M6030 3160 c0 -81 17 -95 22 -19 3 55 21 78 52 66 12 -5 16 -20 16
-62 0 -32 4 -55 10 -55 7 0 10 23 8 61 -3 72 -22 94 -60 70 -16 -10 -23 -10
-26 -2 -2 6 -8 11 -13 11 -5 0 -9 -31 -9 -70z"/>
<path d="M6270 3203 c-48 -61 17 -144 80 -103 11 7 6 10 -20 10 -34 0 -60 14
-60 32 0 4 23 8 51 8 51 0 51 0 45 28 -14 55 -62 68 -96 25z m70 3 c0 -2 3
-11 6 -20 5 -13 -2 -16 -35 -16 -42 0 -50 7 -29 28 11 11 58 17 58 8z"/>
<path d="M6400 3160 c0 -81 17 -95 22 -19 3 55 21 78 52 66 12 -5 16 -20 16
-62 0 -30 5 -55 10 -55 6 0 10 27 10 60 0 50 -3 61 -21 71 -16 8 -28 8 -45 0
-15 -6 -24 -7 -24 -1 0 6 -4 10 -10 10 -6 0 -10 -30 -10 -70z"/>
<path d="M6651 3160 c1 -74 2 -74 9 -24 9 60 16 74 36 74 8 0 14 5 14 10 0 14
-13 13 -28 -2 -10 -10 -15 -10 -22 2 -7 10 -9 -10 -9 -60z"/>
<path d="M6750 3203 c-48 -61 17 -144 80 -103 11 7 6 10 -20 10 -34 0 -60 14
-60 32 0 4 23 8 51 8 51 0 51 0 45 28 -14 55 -62 68 -96 25z m70 3 c0 -2 3
-11 6 -20 5 -13 -2 -16 -35 -16 -42 0 -50 7 -29 28 11 11 58 17 58 8z"/>
<path d="M6880 3130 c0 -60 4 -100 10 -100 6 0 10 18 10 40 0 37 2 40 19 30
28 -14 38 -13 61 10 27 27 26 81 -1 105 -17 16 -25 17 -50 8 -16 -6 -29 -7
-29 -2 0 5 -4 9 -10 9 -6 0 -10 -40 -10 -100z m95 30 c0 -39 -3 -45 -23 -48
-31 -5 -52 15 -52 47 0 35 18 53 50 49 23 -3 25 -7 25 -48z"/>
<path d="M7040 3160 c0 -81 18 -95 22 -17 2 43 7 54 26 62 12 5 22 13 22 17 0
13 -18 9 -34 -8 -15 -14 -16 -14 -16 0 0 9 -4 16 -10 16 -6 0 -10 -30 -10 -70z"/>
<path d="M7152 3214 c-16 -11 -22 -25 -22 -53 0 -57 47 -89 90 -61 11 7 6 10
-20 10 -34 0 -60 14 -60 32 0 4 23 8 50 8 43 0 50 3 50 20 0 22 -33 60 -53 60
-7 0 -23 -7 -35 -16z m66 -26 c3 -15 -4 -18 -38 -18 -38 0 -40 1 -30 21 14 25
63 23 68 -3z"/>
<path d="M7282 3160 c1 -69 1 -71 7 -25 8 62 16 75 46 75 26 0 32 -12 38 -85
2 -22 4 -11 3 24 -1 74 -19 96 -57 73 -18 -12 -23 -12 -30 0 -5 8 -8 -17 -7
-62z"/>
<path d="M7440 3210 c-41 -41 -12 -120 44 -120 41 0 39 19 -1 22 -27 2 -39 8
-41 21 -3 14 4 17 42 17 42 0 46 2 46 24 0 51 -53 73 -90 36z m70 -20 c10 -18
8 -20 -30 -20 -41 0 -49 7 -28 28 18 18 46 14 58 -8z"/>
<path d="M7571 3174 c-1 -74 14 -94 59 -77 21 8 30 8 34 -1 2 -6 4 23 3 64 0
55 -2 62 -4 25 -5 -55 -16 -75 -44 -75 -24 0 -32 16 -40 75 l-6 50 -2 -61z"/>
<path d="M7720 3160 c0 -81 18 -95 22 -17 2 43 7 54 26 62 12 5 22 13 22 17 0
13 -18 9 -34 -8 -15 -14 -16 -14 -16 0 0 9 -4 16 -10 16 -6 0 -10 -30 -10 -70z"/>
<path d="M7828 3219 c-30 -17 -22 -48 18 -65 42 -18 40 -38 -4 -42 -36 -4 -34
-22 2 -22 51 0 62 51 16 75 -40 21 -40 45 1 45 17 0 28 4 24 10 -8 13 -35 12
-57 -1z"/>
<path d="M8230 3160 c0 -81 18 -95 22 -17 2 43 7 54 26 62 12 5 22 13 22 17 0
13 -18 9 -34 -8 -15 -14 -16 -14 -16 0 0 9 -4 16 -10 16 -6 0 -10 -30 -10 -70z"/>
<path d="M8342 3214 c-16 -11 -22 -25 -22 -53 0 -57 47 -89 90 -61 11 7 6 10
-20 10 -34 0 -60 14 -60 32 0 4 23 8 50 8 43 0 50 3 50 20 0 22 -33 60 -53 60
-7 0 -23 -7 -35 -16z m66 -26 c3 -15 -4 -18 -38 -18 -38 0 -40 1 -30 21 14 25
63 23 68 -3z"/>
<path d="M8481 3221 c-11 -7 -6 -10 19 -13 44 -4 51 -26 11 -34 -17 -4 -36
-12 -42 -20 -27 -32 15 -79 51 -56 12 7 20 8 20 2 0 -5 5 -10 10 -10 14 0 12
114 -2 128 -14 14 -47 15 -67 3z m57 -83 c-3 -26 -46 -38 -59 -17 -11 19 9 39
38 39 20 0 24 -4 21 -22z"/>
<path d="M8712 3214 c-16 -11 -22 -25 -22 -53 0 -57 47 -89 90 -61 11 7 6 10
-20 10 -34 0 -60 14 -60 32 0 4 23 8 50 8 43 0 50 3 50 20 0 22 -33 60 -53 60
-7 0 -23 -7 -35 -16z m66 -26 c3 -15 -4 -18 -38 -18 -38 0 -40 1 -30 21 14 25
63 23 68 -3z"/>
<path d="M3150 3160 c0 -5 14 -10 30 -10 17 0 30 5 30 10 0 6 -13 10 -30 10
-16 0 -30 -4 -30 -10z"/>
<path d="M3470 3160 c0 -5 16 -10 35 -10 19 0 35 5 35 10 0 6 -16 10 -35 10
-19 0 -35 -4 -35 -10z"/>
<path d="M7930 3105 c0 -8 5 -15 10 -15 6 0 10 7 10 15 0 8 -4 15 -10 15 -5 0
-10 -7 -10 -15z"/>
<path d="M816 2854 c-9 -8 -16 -21 -16 -29 0 -7 -6 -16 -12 -19 -10 -5 -10 -7
0 -12 7 -4 12 -27 12 -65 0 -33 4 -59 10 -59 6 0 10 27 10 60 0 47 3 60 15 60
8 0 15 5 15 10 0 6 -7 10 -15 10 -8 0 -15 9 -15 20 0 13 7 20 20 20 11 0 20 5
20 10 0 15 -27 12 -44 -6z"/>
<path d="M1250 2855 c0 -8 5 -15 10 -15 6 0 10 7 10 15 0 8 -4 15 -10 15 -5 0
-10 -7 -10 -15z"/>
<path d="M1760 2770 c0 -60 4 -100 10 -100 6 0 10 40 10 100 0 60 -4 100 -10
100 -6 0 -10 -40 -10 -100z"/>
<path d="M1905 2861 c-3 -5 -1 -12 5 -16 5 -3 10 1 10 9 0 18 -6 21 -15 7z"/>
<path d="M2410 2855 c0 -8 5 -15 10 -15 6 0 10 7 10 15 0 8 -4 15 -10 15 -5 0
-10 -7 -10 -15z"/>
<path d="M5310 2830 c0 -38 -1 -39 -25 -28 -39 18 -75 -11 -75 -62 0 -58 45
-91 78 -58 10 10 15 10 22 -2 7 -10 10 19 10 88 0 56 -2 102 -5 102 -3 0 -5
-18 -5 -40z m-12 -52 c7 -7 12 -24 12 -38 0 -52 -61 -71 -82 -25 -23 51 32
101 70 63z"/>
<path d="M5890 2770 c0 -60 4 -100 10 -100 6 0 10 17 10 38 l1 37 32 -38 c18
-20 39 -37 46 -37 9 0 2 13 -18 34 -35 36 -35 43 2 84 31 34 7 26 -30 -10
l-33 -32 0 62 c0 35 -4 62 -10 62 -6 0 -10 -40 -10 -100z"/>
<path d="M6710 2770 c0 -60 4 -100 10 -100 6 0 10 5 10 10 0 7 6 7 19 0 28
-14 38 -13 61 10 27 27 26 81 -1 105 -17 16 -25 17 -50 8 l-29 -11 0 39 c0 21
-4 39 -10 39 -6 0 -10 -40 -10 -100z m95 -30 c0 -39 -3 -45 -23 -48 -31 -5
-52 15 -52 47 0 35 18 53 50 49 23 -3 25 -7 25 -48z"/>
<path d="M7140 2855 c0 -8 5 -15 10 -15 6 0 10 7 10 15 0 8 -4 15 -10 15 -5 0
-10 -7 -10 -15z"/>
<path d="M4595 2835 c-5 -11 -13 -24 -19 -28 -8 -6 -7 -10 2 -14 7 -3 12 -22
12 -47 0 -52 19 -82 46 -72 18 8 18 9 -3 17 -19 7 -23 16 -23 54 0 38 3 45 20
45 11 0 20 5 20 10 0 6 -9 10 -19 10 -12 0 -21 8 -24 23 -3 21 -4 21 -12 2z"/>
<path d="M5455 2835 c-5 -11 -13 -24 -19 -28 -8 -6 -7 -10 2 -14 7 -3 12 -22
12 -47 0 -52 19 -82 46 -72 18 8 18 9 -3 17 -19 7 -23 16 -23 54 0 38 3 45 20
45 11 0 20 5 20 10 0 6 -9 10 -19 10 -12 0 -21 8 -24 23 -3 21 -4 21 -12 2z"/>
<path d="M380 2710 c0 -60 4 -100 10 -100 6 0 10 18 10 39 l0 39 29 -11 c42
-15 71 11 71 64 0 57 -45 89 -79 57 -11 -10 -14 -10 -18 0 -14 36 -23 1 -23
-88z m101 57 c15 -33 -4 -77 -34 -77 -30 0 -47 18 -47 50 0 14 5 31 12 38 20
20 57 14 69 -11z"/>
<path d="M540 2740 c0 -81 18 -95 22 -17 2 43 7 54 26 62 12 5 22 13 22 17 0
13 -18 9 -34 -8 -15 -14 -16 -14 -16 0 0 9 -4 16 -10 16 -6 0 -10 -30 -10 -70z"/>
<path d="M650 2790 c-37 -37 -13 -120 36 -120 26 0 55 20 64 46 10 26 -2 73
-23 86 -22 14 -57 8 -77 -12z m79 -14 c16 -19 10 -66 -10 -79 -9 -5 -28 -7
-42 -3 -22 5 -27 12 -27 39 0 18 5 38 12 45 16 16 53 15 67 -2z"/>
<path d="M890 2790 c-41 -41 -12 -120 44 -120 41 0 39 19 -1 22 -27 2 -39 8
-41 21 -3 14 4 17 42 17 42 0 46 2 46 24 0 51 -53 73 -90 36z m70 -20 c10 -18
8 -20 -30 -20 -41 0 -49 7 -28 28 18 18 46 14 58 -8z"/>
<path d="M1032 2798 c-21 -21 -13 -47 18 -63 42 -22 39 -43 -7 -47 -31 -3 -34
-6 -19 -12 28 -13 70 5 74 32 3 18 -4 26 -33 38 -41 17 -42 37 -2 42 15 2 27
8 27 13 0 13 -44 11 -58 -3z"/>
<path d="M1148 2799 c-28 -16 -22 -47 12 -64 40 -21 39 -43 -2 -47 -27 -3 -30
-6 -15 -12 25 -12 67 9 67 33 0 11 -14 28 -36 40 -38 23 -38 41 2 41 13 0 24
5 24 10 0 13 -30 12 -52 -1z"/>
<path d="M1250 2740 c0 -40 4 -70 10 -70 6 0 10 30 10 70 0 40 -4 70 -10 70
-6 0 -10 -30 -10 -70z"/>
<path d="M1332 2794 c-19 -13 -22 -24 -20 -57 2 -33 9 -44 31 -57 24 -13 30
-13 55 0 21 13 28 24 30 57 2 33 -1 44 -20 57 -12 9 -29 16 -38 16 -9 0 -26
-7 -38 -16z m78 -29 c15 -40 -3 -75 -40 -75 -39 0 -59 36 -42 75 9 19 19 25
42 25 23 0 33 -6 40 -25z"/>
<path d="M1470 2740 c0 -81 17 -95 22 -19 3 55 21 78 52 66 12 -5 16 -20 16
-62 0 -32 4 -55 10 -55 7 0 10 23 8 61 -3 72 -22 94 -60 70 -16 -10 -23 -10
-26 -2 -2 6 -8 11 -13 11 -5 0 -9 -31 -9 -70z"/>
<path d="M1641 2801 c-11 -7 -6 -10 19 -13 44 -4 51 -26 11 -34 -17 -4 -36
-12 -42 -20 -27 -32 15 -79 51 -56 12 7 20 8 20 2 0 -5 5 -10 10 -10 14 0 12
114 -2 128 -14 14 -47 15 -67 3z m57 -83 c-3 -26 -46 -38 -59 -17 -11 19 9 39
38 39 20 0 24 -4 21 -22z"/>
<path d="M1900 2740 c0 -40 4 -70 10 -70 6 0 10 30 10 70 0 40 -4 70 -10 70
-6 0 -10 -30 -10 -70z"/>
<path d="M1970 2740 c0 -84 18 -94 22 -12 3 56 3 57 33 57 30 0 30 -1 33 -57
3 -67 22 -79 22 -15 0 82 -24 112 -70 87 -13 -7 -20 -7 -20 0 0 5 -4 10 -10
10 -6 0 -10 -30 -10 -70z"/>
<path d="M2110 2803 c0 -22 45 -133 53 -130 9 3 57 112 57 129 0 23 -20 -7
-35 -52 -9 -28 -20 -48 -24 -45 -5 2 -14 25 -21 50 -11 40 -30 70 -30 48z"/>
<path d="M2265 2785 c-14 -13 -25 -33 -25 -45 0 -27 43 -70 70 -70 54 0 83 93
38 124 -32 22 -55 20 -83 -9z m80 -45 c0 -42 -2 -45 -28 -48 -50 -6 -72 32
-46 79 8 15 19 19 42 17 31 -3 32 -5 32 -48z"/>
<path d="M2410 2740 c0 -40 4 -70 10 -70 6 0 10 30 10 70 0 40 -4 70 -10 70
-6 0 -10 -30 -10 -70z"/>
<path d="M2492 2794 c-34 -23 -28 -92 9 -113 17 -9 32 -11 45 -6 16 8 14 10
-14 13 -66 7 -68 102 -2 102 16 0 30 5 30 10 0 16 -43 12 -68 -6z"/>
<path d="M2610 2790 c-41 -41 -12 -120 44 -120 41 0 39 19 -1 22 -27 2 -39 8
-41 21 -3 14 4 17 42 17 42 0 46 2 46 24 0 51 -53 73 -90 36z m70 -20 c10 -18
8 -20 -30 -20 -41 0 -49 7 -28 28 18 18 46 14 58 -8z"/>
<path d="M2746 2794 c-26 -25 -18 -42 27 -62 36 -16 30 -36 -11 -40 -36 -4
-34 -22 3 -22 24 0 55 23 55 41 0 5 -16 19 -35 30 -44 26 -46 49 -4 49 17 0
28 4 24 10 -9 15 -42 12 -59 -6z"/>
<path d="M2992 2740 c1 -72 1 -73 7 -23 7 58 20 77 47 71 16 -3 20 -14 22 -61
4 -67 22 -78 22 -13 0 60 8 76 36 76 25 0 31 -13 37 -85 3 -28 4 -22 5 21 2
73 -13 94 -54 76 -19 -9 -29 -9 -44 0 -16 10 -24 10 -41 -1 -18 -11 -23 -11
-30 1 -5 8 -8 -17 -7 -62z"/>
<path d="M3230 2800 c-11 -7 -5 -10 23 -10 46 0 52 -27 7 -36 -16 -4 -35 -12
-41 -20 -27 -32 15 -79 51 -56 12 7 20 8 20 2 0 -5 5 -10 10 -10 14 0 12 114
-2 128 -14 14 -47 15 -68 2z m58 -82 c-4 -31 -58 -40 -58 -10 0 25 8 32 37 32
20 0 24 -5 21 -22z"/>
<path d="M3362 2740 c1 -69 1 -71 7 -25 8 62 16 75 46 75 26 0 32 -12 38 -85
2 -22 4 -11 3 24 -1 74 -19 96 -57 73 -18 -12 -23 -12 -30 0 -5 8 -8 -17 -7
-62z"/>
<path d="M3520 2800 c-11 -7 -5 -10 23 -10 46 0 52 -27 7 -36 -16 -4 -35 -12
-41 -20 -27 -32 15 -79 51 -56 12 7 20 8 20 2 0 -5 5 -10 10 -10 14 0 12 114
-2 128 -14 14 -47 15 -68 2z m58 -82 c-4 -31 -58 -40 -58 -10 0 25 8 32 37 32
20 0 24 -5 21 -22z"/>
<path d="M3660 2790 c-27 -27 -26 -81 1 -105 17 -16 25 -17 50 -8 25 10 29 9
29 -6 0 -26 -21 -41 -58 -41 -19 0 -31 -4 -27 -10 11 -17 64 -11 85 10 17 17
20 33 20 100 0 47 -4 80 -10 80 -5 0 -10 -5 -10 -12 0 -9 -3 -9 -12 0 -18 18
-45 15 -68 -8z m78 -38 c4 -40 -12 -62 -45 -62 -24 0 -44 32 -37 58 13 42 14
43 46 40 29 -3 33 -7 36 -36z"/>
<path d="M3820 2790 c-11 -11 -20 -33 -20 -50 0 -31 30 -70 54 -70 8 0 23 3
33 7 13 6 8 9 -22 13 -27 3 -41 10 -43 23 -3 14 4 17 42 17 42 0 46 2 46 23 0
27 -28 57 -53 57 -9 0 -26 -9 -37 -20z m68 -22 c3 -15 -4 -18 -32 -18 -34 0
-47 15 -29 34 13 13 58 1 61 -16z"/>
<path d="M4030 2783 c-48 -61 17 -144 80 -103 11 7 6 10 -20 10 -34 0 -60 14
-60 32 0 4 23 8 51 8 51 0 51 0 45 28 -14 55 -62 68 -96 25z m70 3 c0 -2 3
-11 6 -20 5 -13 -2 -16 -35 -16 -42 0 -50 7 -29 28 11 11 58 17 58 8z"/>
<path d="M4150 2803 c0 -22 45 -133 53 -130 9 3 57 112 57 129 0 23 -20 -7
-35 -52 -9 -28 -20 -48 -24 -45 -5 2 -14 25 -21 50 -11 40 -30 70 -30 48z"/>
<path d="M4300 2783 c-48 -61 17 -144 80 -103 11 7 6 10 -20 10 -34 0 -60 14
-60 32 0 4 23 8 51 8 51 0 51 0 45 28 -14 55 -62 68 -96 25z m70 3 c0 -2 3
-11 6 -20 5 -13 -2 -16 -35 -16 -42 0 -50 7 -29 28 11 11 58 17 58 8z"/>
<path d="M4430 2740 c0 -81 17 -95 22 -19 3 55 21 78 52 66 12 -5 16 -20 16
-62 0 -32 4 -55 10 -55 7 0 10 23 8 61 -3 72 -22 94 -60 70 -16 -10 -23 -10
-26 -2 -2 6 -8 11 -13 11 -5 0 -9 -31 -9 -70z"/>
<path d="M4688 2799 c-30 -17 -22 -48 18 -65 42 -18 40 -38 -4 -42 -36 -4 -34
-22 2 -22 51 0 62 51 16 75 -40 21 -40 45 1 45 17 0 28 4 24 10 -8 13 -35 12
-57 -1z"/>
<path d="M4940 2800 c-11 -7 -7 -10 17 -10 17 0 35 -5 39 -11 8 -14 -14 -29
-43 -29 -25 0 -46 -31 -37 -54 8 -21 39 -29 64 -16 13 7 20 7 20 0 0 -5 5 -10
11 -10 17 0 6 119 -12 131 -18 11 -40 11 -59 -1z m60 -73 c0 -19 -21 -37 -42
-37 -24 0 -35 29 -17 41 21 13 59 11 59 -4z"/>
<path d="M5060 2740 c0 -81 17 -95 22 -19 3 55 21 78 52 66 12 -5 16 -20 16
-62 0 -30 5 -55 10 -55 6 0 10 27 10 60 0 50 -3 61 -21 71 -16 8 -28 8 -45 0
-15 -6 -24 -7 -24 -1 0 6 -4 10 -10 10 -6 0 -10 -30 -10 -70z"/>
<path d="M5540 2740 c0 -84 18 -94 22 -12 3 50 6 57 26 60 12 2 22 8 22 13 0
13 -24 11 -38 -3 -9 -9 -12 -9 -12 0 0 7 -4 12 -10 12 -6 0 -10 -30 -10 -70z"/>
<path d="M5645 2801 c-3 -5 9 -11 27 -13 45 -4 47 -25 3 -34 -37 -7 -59 -32
-49 -58 8 -21 39 -29 63 -17 14 8 21 8 24 -2 3 -6 6 15 6 49 1 34 -4 65 -11
72 -14 14 -54 16 -63 3z m65 -74 c0 -18 -21 -37 -41 -37 -22 0 -33 16 -25 35
7 19 66 20 66 2z"/>
<path d="M5786 2789 c-32 -25 -35 -70 -6 -99 21 -21 65 -27 75 -10 4 6 -6 10
-22 10 -36 0 -53 16 -53 50 0 34 17 50 53 50 16 0 26 4 22 10 -10 16 -40 11
-69 -11z"/>
<path d="M6090 2802 c0 -5 11 -37 25 -71 25 -66 22 -101 -10 -101 -8 0 -15 -4
-15 -10 0 -19 29 -10 44 13 24 37 76 179 63 174 -6 -2 -20 -30 -31 -63 l-20
-59 -20 63 c-11 34 -23 62 -28 62 -4 0 -8 -4 -8 -8z"/>
<path d="M6252 2794 c-19 -13 -22 -24 -20 -57 2 -33 9 -44 31 -57 24 -13 30
-13 55 0 21 13 28 24 30 57 2 33 -1 44 -20 57 -12 9 -29 16 -38 16 -9 0 -26
-7 -38 -16z m78 -29 c15 -40 -3 -75 -40 -75 -23 0 -33 6 -42 25 -17 39 3 75
42 75 23 0 33 -6 40 -25z"/>
<path d="M6390 2756 c0 -73 25 -100 71 -76 13 7 19 7 19 0 0 -5 5 -10 10 -10
6 0 10 30 10 70 0 40 -4 70 -10 70 -5 0 -10 -21 -10 -47 0 -59 -10 -76 -41
-71 -22 3 -24 9 -27 61 -4 72 -22 75 -22 3z"/>
<path d="M6540 2740 c0 -82 16 -94 22 -17 4 58 0 87 -13 87 -5 0 -9 -31 -9
-70z"/>
<path d="M6583 2803 c-21 -8 -15 -22 7 -16 11 3 20 9 20 14 0 10 -8 10 -27 2z"/>
<path d="M6870 2756 c0 -73 25 -100 71 -76 13 7 19 7 19 0 0 -5 5 -10 10 -10
6 0 10 30 10 70 0 40 -4 70 -10 70 -5 0 -10 -21 -10 -47 0 -59 -10 -76 -41
-71 -22 3 -24 9 -27 61 -4 72 -22 75 -22 3z"/>
<path d="M7038 2799 c-28 -16 -22 -47 12 -64 40 -21 39 -43 -2 -47 -27 -3 -30
-6 -15 -12 25 -12 67 9 67 33 0 11 -14 28 -36 40 -38 23 -38 41 2 41 13 0 24
5 24 10 0 13 -30 12 -52 -1z"/>
<path d="M7140 2740 c0 -40 4 -70 10 -70 6 0 10 30 10 70 0 40 -4 70 -10 70
-6 0 -10 -30 -10 -70z"/>
<path d="M7200 2740 c0 -81 17 -95 22 -19 3 55 21 78 52 66 12 -5 16 -20 16
-62 0 -32 4 -55 10 -55 7 0 10 23 8 61 -3 72 -22 94 -60 70 -16 -10 -23 -10
-26 -2 -2 6 -8 11 -13 11 -5 0 -9 -31 -9 -70z"/>
<path d="M7370 2790 c-11 -11 -20 -33 -20 -50 0 -31 30 -70 54 -70 8 0 23 3
33 7 13 6 8 9 -22 13 -27 3 -41 10 -43 23 -3 14 4 17 42 17 42 0 46 2 46 23 0
27 -28 57 -53 57 -9 0 -26 -9 -37 -20z m68 -22 c3 -15 -4 -18 -32 -18 -34 0
-47 15 -29 34 13 13 58 1 61 -16z"/>
<path d="M7506 2794 c-26 -25 -18 -42 27 -62 36 -16 30 -36 -11 -40 -36 -4
-34 -22 3 -22 24 0 55 23 55 41 0 5 -16 19 -35 30 -44 26 -46 49 -4 49 17 0
28 4 24 10 -9 15 -42 12 -59 -6z"/>
<path d="M7622 2798 c-21 -21 -13 -47 18 -63 42 -22 39 -43 -7 -47 -31 -3 -34
-6 -19 -12 28 -13 70 5 74 32 3 18 -4 26 -33 38 -41 17 -42 37 -2 42 15 2 27
8 27 13 0 13 -44 11 -58 -3z"/>
<path d="M2846 2674 c-10 -38 0 -41 12 -5 6 17 7 31 3 31 -5 0 -12 -12 -15
-26z"/>
<path d="M4786 2674 c-10 -38 0 -41 12 -5 6 17 7 31 3 31 -5 0 -12 -12 -15
-26z"/>
<path d="M802 2438 c-7 -7 -12 -20 -12 -30 0 -10 -7 -18 -17 -18 -17 -1 -17
-1 -1 -14 12 -8 18 -31 21 -72 l3 -59 2 63 c2 55 4 62 22 62 11 0 20 5 20 10
0 6 -9 10 -21 10 -15 0 -19 4 -15 16 3 9 6 18 6 20 0 2 7 4 15 4 8 0 15 5 15
10 0 14 -23 13 -38 -2z"/>
<path d="M2310 2350 c0 -60 4 -100 10 -100 6 0 10 40 10 100 0 60 -4 100 -10
100 -6 0 -10 -40 -10 -100z"/>
<path d="M2384 2350 c0 -58 1 -81 3 -52 2 28 2 76 0 105 -2 28 -3 5 -3 -53z"/>
<path d="M2536 2434 c-9 -8 -16 -21 -16 -29 0 -7 -6 -16 -12 -19 -10 -5 -10
-7 0 -12 7 -4 12 -27 12 -65 0 -33 4 -59 10 -59 6 0 10 27 10 60 0 47 3 60 15
60 8 0 15 5 15 10 0 6 -7 10 -15 10 -8 0 -15 9 -15 20 0 13 7 20 20 20 11 0
20 5 20 10 0 15 -27 12 -44 -6z"/>
<path d="M3933 2350 c0 -74 2 -90 6 -55 8 62 16 75 46 75 26 0 32 -12 38 -85
2 -22 4 -11 3 24 -1 73 -19 96 -56 73 -28 -17 -28 -17 -33 31 -2 23 -4 -5 -4
-63z"/>
<path d="M380 2290 c0 -60 4 -100 10 -100 6 0 10 18 10 39 l0 39 29 -11 c42
-15 71 11 71 64 0 57 -45 89 -79 57 -11 -10 -14 -10 -18 0 -14 36 -23 1 -23
-88z m101 57 c15 -33 -4 -77 -34 -77 -30 0 -47 18 -47 50 0 14 5 31 12 38 20
20 57 14 69 -11z"/>
<path d="M550 2363 c-48 -61 17 -144 80 -103 11 7 6 10 -20 10 -34 0 -60 14
-60 32 0 4 23 8 51 8 51 0 51 0 45 28 -14 55 -62 68 -96 25z m70 3 c0 -2 3
-11 6 -20 5 -13 -2 -16 -35 -16 -42 0 -50 7 -29 28 11 11 58 17 58 8z"/>
<path d="M680 2320 c0 -82 16 -94 22 -17 4 58 0 87 -13 87 -5 0 -9 -31 -9 -70z"/>
<path d="M723 2383 c-21 -8 -15 -22 7 -16 11 3 20 9 20 14 0 10 -8 10 -27 2z"/>
<path d="M875 2365 c-14 -13 -25 -33 -25 -45 0 -27 43 -70 70 -70 54 0 83 93
38 124 -32 22 -55 20 -83 -9z m80 -45 c0 -42 -2 -45 -28 -48 -50 -6 -72 32
-46 79 8 15 19 19 42 17 31 -3 32 -5 32 -48z"/>
<path d="M1020 2320 c0 -81 18 -95 22 -17 2 43 7 54 26 62 12 5 22 13 22 17 0
13 -18 9 -34 -8 -15 -14 -16 -14 -16 0 0 9 -4 16 -10 16 -6 0 -10 -30 -10 -70z"/>
<path d="M1110 2320 c0 -40 4 -70 10 -70 6 0 10 21 10 48 0 58 10 75 41 70 22
-3 24 -9 27 -60 2 -32 7 -58 12 -58 5 0 10 26 12 58 3 53 5 57 28 57 23 0 25
-4 28 -57 2 -32 7 -58 12 -58 14 0 12 114 -2 128 -17 17 -43 15 -58 -3 -12
-14 -15 -14 -31 1 -16 14 -24 15 -44 6 -15 -7 -25 -8 -25 -2 0 6 -4 10 -10 10
-6 0 -10 -30 -10 -70z"/>
<path d="M1361 2381 c-11 -7 -6 -10 19 -13 44 -4 51 -26 11 -34 -17 -4 -36
-12 -42 -20 -27 -32 15 -79 51 -56 12 7 20 8 20 2 0 -5 5 -10 10 -10 14 0 12
114 -2 128 -14 14 -47 15 -67 3z m57 -83 c-3 -26 -46 -38 -59 -17 -11 19 9 39
38 39 20 0 24 -4 21 -22z"/>
<path d="M1480 2320 c0 -81 17 -95 22 -19 3 55 21 78 52 66 12 -5 16 -20 16
-62 0 -32 4 -55 10 -55 7 0 10 23 8 61 -3 72 -22 94 -60 70 -16 -10 -23 -10
-26 -2 -2 6 -8 11 -13 11 -5 0 -9 -31 -9 -70z"/>
<path d="M1650 2370 c-52 -52 9 -149 70 -110 11 7 8 10 -15 10 -38 0 -55 16
-55 50 0 34 17 50 53 50 16 0 26 4 22 10 -10 17 -54 11 -75 -10z"/>
<path d="M1770 2363 c-48 -61 17 -144 80 -103 11 7 6 10 -20 10 -34 0 -60 14
-60 32 0 4 23 8 51 8 51 0 51 0 45 28 -14 55 -62 68 -96 25z m70 3 c0 -2 3
-11 6 -20 5 -13 -2 -16 -35 -16 -42 0 -50 7 -29 28 11 11 58 17 58 8z"/>
<path d="M2190 2380 c-11 -7 -7 -10 17 -10 17 0 35 -5 39 -11 8 -14 -14 -29
-43 -29 -25 0 -46 -31 -37 -54 8 -21 39 -29 64 -16 13 7 20 7 20 0 0 -5 5 -10
11 -10 17 0 6 119 -12 131 -18 11 -40 11 -59 -1z m60 -73 c0 -19 -21 -37 -42
-37 -24 0 -35 29 -17 41 21 13 59 11 59 -4z"/>
<path d="M2600 2320 c0 -84 18 -94 22 -12 3 50 6 57 26 60 12 2 22 8 22 13 0
13 -24 11 -38 -3 -9 -9 -12 -9 -12 0 0 7 -4 12 -10 12 -6 0 -10 -30 -10 -70z"/>
<path d="M2712 2374 c-19 -13 -22 -24 -20 -57 2 -33 9 -44 31 -57 24 -13 30
-13 55 0 21 13 28 24 30 57 2 33 -1 44 -20 57 -12 9 -29 16 -38 16 -9 0 -26
-7 -38 -16z m78 -29 c15 -40 -3 -75 -40 -75 -39 0 -59 36 -42 75 9 19 19 25
42 25 23 0 33 -6 40 -25z"/>
<path d="M2850 2320 c0 -40 4 -70 10 -70 6 0 10 20 10 44 0 59 8 76 35 76 27
0 35 -16 36 -78 l2 -47 6 52 c7 58 20 77 47 71 16 -3 20 -14 22 -61 4 -75 22
-74 22 2 0 40 -5 63 -15 71 -17 14 -65 5 -65 -12 0 -6 -9 -3 -20 7 -17 15 -24
16 -45 7 -15 -7 -25 -8 -25 -2 0 6 -4 10 -10 10 -6 0 -10 -30 -10 -70z"/>
<path d="M3166 2320 c28 -75 27 -96 -7 -109 -14 -4 -18 -10 -12 -14 24 -15 43
8 77 94 39 97 40 99 28 99 -5 0 -16 -25 -26 -55 -9 -30 -20 -55 -25 -55 -4 0
-15 25 -25 55 -9 30 -21 55 -26 55 -5 0 2 -31 16 -70z"/>
<path d="M3300 2370 c-41 -41 -12 -120 44 -120 15 0 33 11 46 27 53 68 -30
153 -90 93z m78 -12 c7 -7 12 -24 12 -38 0 -31 -17 -50 -45 -50 -28 0 -45 19
-45 50 0 31 17 50 45 50 12 0 26 -5 33 -12z"/>
<path d="M3454 2331 c1 -74 19 -96 57 -73 18 12 23 12 30 0 5 -8 8 17 7 62 -1
69 -1 71 -7 25 -8 -62 -16 -75 -46 -75 -26 0 -32 12 -38 85 -2 22 -4 11 -3
-24z"/>
<path d="M3600 2320 c0 -84 18 -94 22 -12 3 50 6 57 26 60 12 2 22 8 22 13 0
13 -24 11 -38 -3 -9 -9 -12 -9 -12 0 0 7 -4 12 -10 12 -6 0 -10 -30 -10 -70z"/>
<path d="M3772 2290 c1 -58 3 -86 5 -62 5 47 5 47 33 30 25 -16 49 -3 68 35
27 55 -15 111 -66 88 -20 -10 -27 -9 -33 1 -5 7 -8 -34 -7 -92z m86 68 c7 -7
12 -24 12 -38 0 -32 -17 -50 -47 -50 -31 0 -48 36 -34 73 11 29 47 37 69 15z"/>
<path d="M4090 2370 c-41 -41 -12 -120 44 -120 15 0 33 11 46 27 53 68 -30
153 -90 93z m78 -12 c7 -7 12 -24 12 -38 0 -31 -17 -50 -45 -50 -28 0 -45 19
-45 50 0 31 17 50 45 50 12 0 26 -5 33 -12z"/>
<path d="M4242 2320 c1 -69 1 -71 7 -25 8 62 16 75 46 75 26 0 32 -12 38 -85
2 -22 4 -11 3 24 -1 74 -19 96 -57 73 -18 -12 -23 -12 -30 0 -5 8 -8 -17 -7
-62z"/>
<path d="M4400 2370 c-41 -41 -12 -120 44 -120 41 0 39 19 -1 22 -27 2 -39 8
-41 21 -3 14 4 17 42 17 42 0 46 2 46 24 0 51 -53 73 -90 36z m70 -20 c10 -18
8 -20 -30 -20 -41 0 -49 7 -28 28 18 18 46 14 58 -8z"/>
<path d="M1880 2320 c0 -6 52 -10 135 -10 83 0 135 4 135 10 0 6 -52 10 -135
10 -83 0 -135 -4 -135 -10z"/>
<path d="M4530 2265 c0 -8 5 -15 10 -15 6 0 10 7 10 15 0 8 -4 15 -10 15 -5 0
-10 -7 -10 -15z"/>
<path d="M438 1649 c-70 -37 -78 -67 -78 -309 0 -192 2 -214 20 -250 13 -26
34 -47 60 -60 39 -20 56 -20 1265 -20 1209 0 1226 0 1265 20 26 13 47 34 60
60 18 36 20 58 20 250 0 192 -2 214 -20 250 -13 26 -34 47 -60 60 -39 20 -56
20 -1267 20 -1203 -1 -1229 -1 -1265 -21z m2042 -213 c0 -8 -4 -26 -10 -40 -9
-25 -8 -26 30 -26 21 0 42 -5 45 -10 8 -13 -93 -130 -111 -130 -16 0 -18 19
-4 54 9 25 8 26 -30 26 -21 0 -42 5 -45 10 -4 6 17 37 45 70 50 58 80 75 80
46z m-1050 -36 c0 -5 -7 -10 -15 -10 -8 0 -15 -7 -15 -15 0 -8 7 -15 15 -15 8
0 15 -4 15 -10 0 -5 -7 -10 -15 -10 -11 0 -15 -12 -15 -45 0 -33 -4 -45 -15
-45 -11 0 -15 12 -15 44 0 26 -5 47 -12 50 -10 5 -10 7 0 12 6 3 12 11 12 18
0 7 5 17 12 24 15 15 48 16 48 2z m-490 -14 c0 -10 -9 -14 -26 -13 -40 3 -39
-18 1 -41 58 -35 42 -82 -27 -82 -26 0 -38 4 -38 14 0 9 10 13 31 12 44 -2 46
18 4 42 -55 33 -43 82 22 82 22 0 33 -5 33 -14z m850 4 c0 -5 -13 -10 -30 -10
-25 0 -30 -4 -30 -25 0 -20 5 -25 25 -25 14 0 25 -4 25 -10 0 -5 -11 -10 -25
-10 -21 0 -25 -5 -25 -30 0 -20 -5 -30 -15 -30 -12 0 -15 15 -15 75 l0 75 45
0 c25 0 45 -4 45 -10z m-790 -14 c0 -8 6 -17 13 -20 10 -5 10 -7 0 -12 -15 -7
-18 -74 -3 -74 6 0 10 -5 10 -11 0 -6 -10 -9 -22 -7 -19 2 -24 10 -26 43 -2
22 -9 44 -15 48 -9 6 -9 10 1 14 6 2 12 11 12 19 0 8 7 14 15 14 8 0 15 -6 15
-14z m270 0 c0 -8 6 -17 13 -20 10 -5 10 -7 0 -12 -15 -7 -18 -74 -3 -74 6 0
10 -5 10 -11 0 -6 -10 -9 -22 -7 -19 2 -24 10 -26 46 -3 40 -5 43 -30 40 -24
-3 -27 -8 -30 -45 -2 -29 -8 -43 -18 -43 -10 0 -14 14 -14 55 l0 55 45 0 c33
0 45 4 45 15 0 8 7 15 15 15 8 0 15 -6 15 -14z m-150 -35 c5 -11 10 -36 10
-55 0 -36 0 -36 -45 -36 -33 0 -47 5 -52 16 -9 24 10 48 43 54 19 4 25 8 16
13 -7 5 -21 5 -32 2 -11 -4 -20 -2 -20 3 0 29 64 31 80 3z m408 7 c7 -7 12
-26 12 -43 0 -38 -16 -55 -51 -55 -34 0 -59 24 -59 55 0 13 7 31 16 39 18 19
65 21 82 4z m102 3 c0 -3 -9 -12 -20 -19 -14 -8 -20 -23 -20 -47 0 -24 -5 -35
-15 -35 -11 0 -15 13 -15 54 l0 54 35 0 c19 0 35 -3 35 -7z m240 0 c0 -3 -9
-12 -20 -19 -14 -8 -20 -23 -20 -47 0 -24 -5 -35 -15 -35 -11 0 -15 13 -15 54
l0 54 35 0 c19 0 35 -3 35 -7z m88 -3 c7 -7 12 -20 12 -30 0 -14 -8 -18 -35
-18 -27 0 -33 -3 -28 -16 4 -12 14 -14 35 -10 21 4 28 2 26 -7 -3 -6 -18 -13
-35 -15 -54 -5 -83 50 -46 90 18 21 53 24 71 6z m122 -7 c17 -33 12 -41 -26
-41 -24 0 -34 -4 -31 -12 2 -7 16 -12 31 -11 39 3 27 -21 -12 -25 -52 -5 -75
50 -39 96 15 19 65 15 77 -7z"/>
<path d="M2406 1371 l-39 -40 44 -3 c42 -3 44 -4 42 -32 l-2 -29 40 39 40 39
-43 5 c-40 5 -43 7 -41 33 1 15 1 27 -1 27 -1 0 -19 -18 -40 -39z"/>
<path d="M1067 1293 c-12 -11 -8 -23 7 -23 8 0 16 7 20 15 5 15 -14 21 -27 8z"/>
<path d="M1464 1326 c-10 -26 0 -51 21 -51 16 0 20 7 20 30 0 33 -30 49 -41
21z"/>
<path d="M1905 1330 c-3 -5 3 -10 14 -10 12 0 21 5 21 10 0 6 -6 10 -14 10 -8
0 -18 -4 -21 -10z"/>
<path d="M2020 1330 c0 -5 9 -10 21 -10 11 0 17 5 14 10 -3 6 -13 10 -21 10
-8 0 -14 -4 -14 -10z"/>
<path d="M18560 1150 c0 -15 7 -20 25 -20 28 0 34 24 9 34 -26 10 -34 7 -34
-14z"/>
<path d="M18550 1095 c0 -10 10 -15 30 -15 20 0 30 5 30 15 0 10 -10 15 -30
15 -20 0 -30 -5 -30 -15z"/>
<path d="M18552 1028 c7 -20 58 -23 58 -4 0 11 -10 16 -31 16 -20 0 -29 -4
-27 -12z"/>
</g>
</svg>
